{
    "accessors" : [
        {
            "bufferView" : 0,
            "componentType" : 5123,
            "count" : 3828,
            "max" : [
                1280
            ],
            "min" : [
                0
            ],
            "type" : "SCALAR"
        },
        {
            "bufferView" : 1,
            "componentType" : 5126,
            "count" : 1281,
            "max" : [
                4.853085041046143,
                7.62844705581665,
                -0.0
            ],
            "min" : [
                -4.834869861602783,
                -7.655816078186035,
                -1.0927280187606812
            ],
            "type" : "VEC3"
        },
        {
            "bufferView" : 2,
            "componentType" : 5126,
            "count" : 1281,
            "max" : [
                1.0,
                1.0,
                1.0
            ],
            "min" : [
                -1.0,
                -1.0,
                -1.0
            ],
            "type" : "VEC3"
        },
        {
            "bufferView" : 3,
            "componentType" : 5126,
            "count" : 1281,
            "max" : [
                0.9970269799232483,
                0.9970909999683499
            ],
            "min" : [
                0.002974000060930848,
                0.0029090046882629395
            ],
            "type" : "VEC2"
        }
    ],
    "asset" : {
        "generator" : "Khronos Blender glTF 2.0 exporter",
        "version" : "2.0"
    },
    "bufferViews" : [
        {
            "buffer" : 0,
            "byteLength" : 7656,
            "byteOffset" : 0,
            "target" : 34963
        },
        {
            "buffer" : 0,
            "byteLength" : 15372,
            "byteOffset" : 7656,
            "target" : 34962
        },
        {
            "buffer" : 0,
            "byteLength" : 15372,
            "byteOffset" : 23028,
            "target" : 34962
        },
        {
            "buffer" : 0,
            "byteLength" : 10248,
            "byteOffset" : 38400,
            "target" : 34962
        }
    ],
    "buffers" : [
        {
            "byteLength" : 48648,
            "uri" : "kafka.bin"
        }
    ],
    "images" : [
        {
            "name" : "Apachekafka",
            "uri" : "Apachekafka.jpg"
        }
    ],
    "materials" : [
        {
            "alphaMode" : "BLEND",
            "name" : "center",
            "pbrMetallicRoughness" : {
                "baseColorTexture" : {
                    "index" : 0
                },
                "metallicFactor" : 0.0,
                "roughnessFactor" : 0.0
            }
        }
    ],
    "meshes" : [
        {
            "name" : "Circle.001",
            "primitives" : [
                {
                    "attributes" : {
                        "NORMAL" : 2,
                        "POSITION" : 1,
                        "TEXCOORD_0" : 3
                    },
                    "indices" : 0,
                    "material" : 0
                }
            ]
        }
    ],
    "nodes" : [
        {
            "mesh" : 0,
            "name" : "Circle.001",
            "rotation" : [
                1.0,
                0.0,
                -0.0,
                -1.6292068494294654e-07
            ],
            "scale" : [
                2.0,
                2.0,
                2.0
            ]
        }
    ],
    "samplers" : [
        {}
    ],
    "scene" : 0,
    "scenes" : [
        {
            "name" : "Scene",
            "nodes" : [
                0
            ]
        }
    ],
    "textures" : [
        {
            "sampler" : 0,
            "source" : 0
        }
    ]
}
