# Blender v2.79 (sub 0) OBJ File: ''
# www.blender.org
mtllib 1stbuilding.mtl
o Cube.003
v -0.630963 0.136677 -0.669922
v -0.630963 2.113235 -0.669922
v 0.630963 0.136677 -0.669922
v 0.630963 2.113235 -0.669922
v -0.630963 0.136677 1.814183
v -0.630963 2.113235 1.814183
v 0.630963 0.136677 1.814183
v 0.630963 2.113235 1.814183
v -0.573893 0.173700 -0.669922
v -0.619228 2.113235 -0.669922
v -0.564566 0.181316 1.814183
v -0.619228 2.113235 1.814183
v 0.621308 2.113235 -0.669922
v 0.566647 0.181316 1.814183
v 0.575974 0.173700 -0.669922
v 0.621308 2.113235 1.814183
v 0.630963 0.178133 -0.600944
v 0.630963 2.113235 -0.651708
v -0.630963 0.168850 -0.612312
v -0.630963 2.113235 -0.651708
v -0.560735 2.113235 -0.590575
v -0.619228 0.136677 -0.651708
v 0.621308 0.136677 -0.651708
v 0.562815 2.113235 -0.590575
v 0.630963 2.113235 1.793374
v -0.630963 0.168850 1.753978
v -0.560735 2.113235 1.733426
v 0.562815 2.113235 1.733426
v 0.630963 0.178133 1.742610
v -0.630963 2.113235 1.793374
v -0.619228 0.136677 1.793374
v 0.621308 0.136677 1.793374
v -0.630963 2.061953 -0.669922
v 0.630963 2.061953 -0.669922
v 0.630963 2.061953 1.814183
v -0.630963 2.061953 1.814183
v -0.564566 2.017314 1.814183
v -0.573893 2.024931 -0.669922
v 0.566647 2.017314 1.814183
v 0.575974 2.024931 -0.669922
v -0.630963 2.029781 -0.612312
v 0.630963 2.020498 -0.600944
v -0.630963 2.029781 1.753978
v 0.630963 2.020498 1.742610
v 0.621308 2.113235 -0.651708
v -0.619228 2.113235 -0.651708
v -0.619228 2.113235 1.793374
v 0.621308 2.113235 1.793374
v 0.562815 2.084865 -0.590575
v -0.560735 2.084865 -0.590575
v -0.560735 2.084865 1.733426
v 0.562815 2.084865 1.733426
v 0.630963 0.136677 1.793374
v 0.630963 0.136677 -0.651708
v 0.630963 2.061953 -0.651708
v 0.630963 2.061953 1.793374
v 0.585084 0.178133 1.742610
v 0.585084 0.178133 -0.600944
v 0.585084 2.020498 -0.600944
v 0.585084 2.020498 1.742610
v -0.619228 2.061953 1.814183
v -0.619228 0.136677 1.814183
v 0.621308 0.136677 1.814183
v 0.621308 2.061953 1.814183
v -0.564566 2.017314 1.781659
v -0.564566 0.181316 1.781659
v 0.566647 0.181316 1.781659
v 0.566647 2.017314 1.781659
v 0.621308 0.136677 -0.669922
v -0.619228 0.136677 -0.669922
v -0.619228 2.061953 -0.669922
v 0.621308 2.061953 -0.669922
v 0.575974 0.173700 -0.634796
v -0.573893 0.173700 -0.634796
v -0.573893 2.024931 -0.634796
v 0.575974 2.024931 -0.634796
v -0.630963 2.061953 -0.651708
v -0.630963 0.136677 -0.651708
v -0.630963 0.136677 1.793374
v -0.630963 2.061953 1.793374
v -0.589500 2.029781 -0.612312
v -0.589500 0.168850 -0.612312
v -0.589500 0.168850 1.753978
v -0.589500 2.029781 1.753978
v -0.675932 0.136677 -0.718448
v 0.675858 0.136677 -0.718448
v -0.675932 0.136677 1.862761
v 0.675858 0.136677 1.862761
v -0.663361 0.136677 -0.699523
v 0.665516 0.136677 -0.699523
v -0.663361 0.136677 1.841138
v 0.665516 0.136677 1.841138
v 0.675858 0.136677 1.841138
v 0.675858 0.136677 -0.699523
v -0.663361 0.136677 1.862761
v 0.665516 0.136677 1.862761
v 0.665516 0.136677 -0.718448
v -0.663361 0.136677 -0.718448
v -0.675932 0.136677 -0.699523
v -0.675932 0.136677 1.841138
v -0.675932 -0.003524 -0.718448
v 0.675858 -0.003524 -0.718448
v -0.675932 -0.003524 1.862761
v 0.675858 -0.003524 1.862761
v -0.663361 -0.003524 -0.699523
v 0.665516 -0.003524 -0.699523
v -0.663361 -0.003524 1.841138
v 0.665516 -0.003524 1.841138
v 0.675858 -0.003524 1.841138
v 0.675858 -0.003524 -0.699523
v -0.663361 -0.003524 1.862761
v 0.665516 -0.003524 1.862761
v 0.665516 -0.003524 -0.718448
v -0.663361 -0.003524 -0.718448
v -0.675932 -0.003524 -0.699523
v -0.675932 -0.003524 1.841138
vt 0.962492 0.675802
vt 0.962492 0.991831
vt 0.681141 0.991831
vt 0.681141 0.675802
vt 0.460451 0.728401
vt 0.460451 0.982026
vt 0.251446 0.982026
vt 0.251446 0.728401
vt 0.669399 0.735504
vt 0.669399 0.973549
vt 0.471638 0.973549
vt 0.471638 0.735504
vt 0.242924 0.731186
vt 0.242924 0.987321
vt 0.014979 0.987321
vt 0.014979 0.731186
vt 0.576794 0.434624
vt 0.576794 0.436167
vt 0.575277 0.436167
vt 0.575277 0.434624
vt 0.737076 0.434624
vt 0.737076 0.436167
vt 0.738324 0.434624
vt 0.738324 0.436167
vt 0.738324 0.227471
vt 0.737076 0.227471
vt 0.576793 0.227471
vt 0.575277 0.227471
vt 0.576793 0.225708
vt 0.575277 0.225708
vt 0.737076 0.225708
vt 0.738324 0.225708
vt 0.848679 0.005083
vt 0.848679 0.203634
vt 0.842751 0.203634
vt 0.842751 0.005083
vt 0.131440 0.454560
vt 0.131440 0.550399
vt 0.127238 0.550399
vt 0.127238 0.454560
vt 0.027459 0.551979
vt 0.027459 0.454560
vt 0.031997 0.454560
vt 0.031997 0.551979
vt 0.906478 0.205560
vt 0.906478 0.005083
vt 0.911835 0.005083
vt 0.911835 0.205560
vt 0.825999 0.010403
vt 0.825999 0.005083
vt 0.827247 0.005083
vt 0.827247 0.010403
vt 0.015866 0.006846
vt 0.007752 0.006846
vt 0.007752 0.005083
vt 0.015866 0.005083
vt 0.755345 0.425445
vt 0.755345 0.430765
vt 0.753828 0.430765
vt 0.753828 0.425445
vt 0.640582 0.213999
vt 0.648696 0.213999
vt 0.648696 0.215542
vt 0.640582 0.215542
vt 0.915627 0.425445
vt 0.915627 0.430765
vt 0.664200 0.010403
vt 0.664200 0.005083
vt 0.665716 0.005083
vt 0.665716 0.010403
vt 0.916875 0.425445
vt 0.916875 0.430765
vt 0.487930 0.451125
vt 0.487930 0.648019
vt 0.483442 0.648019
vt 0.483442 0.451125
vt 0.640582 0.006846
vt 0.648696 0.006846
vt 0.015866 0.215542
vt 0.007752 0.215542
vt 0.007752 0.213999
vt 0.015866 0.213999
vt 0.640582 0.005083
vt 0.648696 0.005083
vt 0.864184 0.203634
vt 0.864183 0.005083
vt 0.870111 0.005083
vt 0.870111 0.203634
vt 0.335976 0.005083
vt 0.335976 0.006846
vt 0.320472 0.215542
vt 0.320472 0.213999
vt 0.726023 0.639394
vt 0.726023 0.446333
vt 0.731380 0.446333
vt 0.731380 0.639394
vt 0.507973 0.451125
vt 0.507973 0.643180
vt 0.503435 0.643180
vt 0.503435 0.451125
vt 0.916875 0.225708
vt 0.915627 0.225708
vt 0.664200 0.210140
vt 0.665716 0.210140
vt 0.111733 0.454560
vt 0.111733 0.550399
vt 0.107531 0.550399
vt 0.107531 0.454560
vt 0.335976 0.213999
vt 0.335976 0.215542
vt 0.755345 0.225708
vt 0.753828 0.225708
vt 0.320472 0.006846
vt 0.320472 0.005083
vt 0.825999 0.210140
vt 0.827247 0.210140
vt 0.584351 0.429444
vt 0.729519 0.429444
vt 0.584351 0.232550
vt 0.729519 0.232550
vt 0.087538 0.549750
vt 0.087538 0.454560
vt 0.092026 0.454560
vt 0.092026 0.549750
vt 0.067545 0.549750
vt 0.067545 0.454560
vt 0.072033 0.454560
vt 0.072033 0.549750
vt 0.463449 0.648019
vt 0.463449 0.451125
vt 0.467937 0.451125
vt 0.467937 0.648019
vt 0.313913 0.209698
vt 0.313913 0.011147
vt 0.022425 0.209698
vt 0.022425 0.011147
vt 0.954699 0.005083
vt 0.954699 0.196218
vt 0.948772 0.196218
vt 0.948772 0.005083
vt 0.933267 0.005083
vt 0.933267 0.196218
vt 0.927339 0.196218
vt 0.927339 0.005083
vt 0.762407 0.230339
vt 0.762407 0.420814
vt 0.908565 0.230339
vt 0.908565 0.420814
vt 0.543521 0.641599
vt 0.543521 0.451125
vt 0.547723 0.451125
vt 0.547723 0.641599
vt 0.011955 0.454560
vt 0.011955 0.645035
vt 0.007752 0.645035
vt 0.007752 0.454560
vt 0.671574 0.206299
vt 0.820142 0.206299
vt 0.671574 0.014244
vt 0.820142 0.014244
vt 0.047502 0.551979
vt 0.047502 0.454560
vt 0.052040 0.454560
vt 0.052040 0.551979
vt 0.523478 0.643180
vt 0.523478 0.451125
vt 0.528016 0.451125
vt 0.528016 0.643180
vt 0.341066 0.210661
vt 0.635492 0.210661
vt 0.341066 0.010184
vt 0.635492 0.010184
vt 0.970204 0.198144
vt 0.970204 0.005083
vt 0.975561 0.005083
vt 0.975561 0.198144
vt 0.890973 0.005083
vt 0.890973 0.205560
vt 0.885616 0.205560
vt 0.885616 0.005083
vt 0.393788 0.436907
vt 0.554071 0.436907
vt 0.559773 0.440958
vt 0.388076 0.440958
vt 0.203724 0.231587
vt 0.203724 0.438739
vt 0.197914 0.442790
vt 0.197914 0.227540
vt 0.203724 0.440282
vt 0.197914 0.444394
vt 0.205241 0.440282
vt 0.199538 0.444394
vt 0.365523 0.440282
vt 0.366771 0.440282
vt 0.372571 0.444394
vt 0.371235 0.444394
vt 0.366771 0.229824
vt 0.365523 0.229824
vt 0.371235 0.225708
vt 0.372571 0.225708
vt 0.205240 0.229824
vt 0.203724 0.229824
vt 0.197914 0.225708
vt 0.199538 0.225708
vt 0.366771 0.438739
vt 0.366771 0.231587
vt 0.372571 0.227540
vt 0.372571 0.442790
vt 0.554071 0.229755
vt 0.393788 0.229755
vt 0.388076 0.225708
vt 0.559773 0.225708
vt 0.970066 0.442790
vt 0.970066 0.227540
vt 0.992248 0.227540
vt 0.992248 0.442790
vt 0.388076 0.563710
vt 0.388076 0.451125
vt 0.410258 0.451125
vt 0.410258 0.563710
vt 0.688337 0.559795
vt 0.688337 0.447210
vt 0.710518 0.447210
vt 0.710518 0.559795
vt 0.597459 0.446333
vt 0.597459 0.661583
vt 0.575277 0.661583
vt 0.575277 0.446333
vt 0.970066 0.444394
vt 0.992248 0.444394
vt 0.970066 0.225708
vt 0.992248 0.225708
vt 0.612964 0.661583
vt 0.612964 0.446333
vt 0.635146 0.446333
vt 0.635146 0.661583
vt 0.954561 0.225708
vt 0.954561 0.227540
vt 0.932379 0.227540
vt 0.932379 0.225708
vt 0.180785 0.227540
vt 0.180785 0.225708
vt 0.182409 0.225708
vt 0.182409 0.227540
vt 0.009088 0.227540
vt 0.009088 0.225708
vt 0.007752 0.227540
vt 0.007752 0.225708
vt 0.007752 0.444394
vt 0.007752 0.442790
vt 0.009089 0.442790
vt 0.009089 0.444394
vt 0.180785 0.442790
vt 0.180785 0.444394
vt 0.182410 0.442790
vt 0.182410 0.444394
vt 0.650650 0.559984
vt 0.650650 0.447398
vt 0.672832 0.447398
vt 0.672832 0.559984
vt 0.650650 0.446333
vt 0.672832 0.446333
vt 0.650650 0.560860
vt 0.672832 0.560860
vt 0.688337 0.446333
vt 0.710518 0.446333
vt 0.688337 0.560860
vt 0.710518 0.560860
vt 0.954561 0.442790
vt 0.954561 0.444394
vt 0.932379 0.444394
vt 0.932379 0.442790
vt 0.425762 0.563710
vt 0.425762 0.451125
vt 0.447944 0.451125
vt 0.447944 0.563710
vt 0.898996 0.440932
vt 0.898996 0.637826
vt 0.753828 0.637826
vt 0.753828 0.440932
vn 1.0000 0.0000 0.0000
vn 0.0000 0.0000 1.0000
vn 0.0000 0.0000 -1.0000
vn -1.0000 0.0000 -0.0000
vn 0.0000 1.0000 0.0000
vn 0.0000 -1.0000 -0.0000
usemtl wallstran
s off
f 58/1/1 59/2/1 60/3/1 57/4/1
f 67/5/2 68/6/2 65/7/2 66/8/2
f 74/9/3 75/10/3 76/11/3 73/12/3
f 83/13/4 84/14/4 81/15/4 82/16/4
usemtl led
f 46/17/5 10/18/5 2/19/5 20/20/5
f 45/21/5 13/22/5 10/18/5 46/17/5
f 18/23/5 4/24/5 13/22/5 45/21/5
f 25/25/5 18/23/5 45/21/5 48/26/5
f 47/27/5 46/17/5 20/20/5 30/28/5
f 12/29/5 47/27/5 30/28/5 6/30/5
f 16/31/5 48/26/5 47/27/5 12/29/5
f 8/32/5 25/25/5 48/26/5 16/31/5
f 29/33/5 17/34/5 58/35/5 57/36/5
f 11/37/5 14/38/5 67/39/5 66/40/5
f 15/41/5 9/42/5 74/43/5 73/44/5
f 19/45/5 26/46/5 83/47/5 82/48/5
usemtl roof
f 72/49/3 13/50/3 4/51/3 34/52/3
f 56/53/1 25/54/1 8/55/1 35/56/1
f 61/57/2 12/58/2 6/59/2 36/60/2
f 77/61/4 20/62/4 2/63/4 33/64/4
f 64/65/2 16/66/2 12/58/2 61/57/2
f 33/67/3 2/68/3 10/69/3 71/70/3
f 35/71/2 8/72/2 16/66/2 64/65/2
f 71/70/3 10/69/3 13/50/3 72/49/3
f 28/73/4 24/74/4 49/75/4 52/76/4
f 80/77/4 30/78/4 20/62/4 77/61/4
f 34/79/1 4/80/1 18/81/1 55/82/1
f 36/83/4 6/84/4 30/78/4 80/77/4
f 55/82/1 18/81/1 25/54/1 56/53/1
f 42/85/6 44/86/6 60/87/6 59/88/6
f 5/89/4 36/83/4 80/77/4 79/90/4
f 3/91/1 34/79/1 55/82/1 54/92/1
f 26/93/3 43/94/3 84/95/3 83/96/3
f 40/97/4 15/98/4 73/99/4 76/100/4
f 7/101/2 35/71/2 64/65/2 63/102/2
f 1/103/3 33/67/3 71/70/3 70/104/3
f 39/105/6 37/106/6 65/107/6 68/108/6
f 78/109/4 77/61/4 33/64/4 1/110/4
f 62/111/2 61/57/2 36/60/2 5/112/2
f 53/113/1 56/53/1 35/56/1 7/114/1
f 69/115/3 72/49/3 34/52/3 3/116/3
f 21/117/5 24/118/5 45/21/5 46/17/5
f 27/119/5 21/117/5 46/17/5 47/27/5
f 24/118/5 28/120/5 48/26/5 45/21/5
f 28/120/5 27/119/5 47/27/5 48/26/5
f 24/121/2 21/122/2 50/123/2 49/124/2
f 27/125/3 28/126/3 52/127/3 51/128/3
f 21/129/1 27/130/1 51/131/1 50/132/1
f 17/133/1 29/134/1 53/113/1 54/92/1
f 42/135/1 17/133/1 54/92/1 55/82/1
f 29/134/1 44/136/1 56/53/1 53/113/1
f 44/136/1 42/135/1 55/82/1 56/53/1
f 17/137/2 42/138/2 59/139/2 58/140/2
f 44/141/3 29/142/3 57/143/3 60/144/3
f 11/145/2 37/146/2 61/57/2 62/111/2
f 14/147/2 11/145/2 62/111/2 63/102/2
f 39/148/2 14/147/2 63/102/2 64/65/2
f 37/146/2 39/148/2 64/65/2 61/57/2
f 14/149/4 39/150/4 68/151/4 67/152/4
f 37/153/1 11/154/1 66/155/1 65/156/1
f 9/157/3 15/158/3 69/115/3 70/104/3
f 38/159/3 9/157/3 70/104/3 71/70/3
f 15/158/3 40/160/3 72/49/3 69/115/3
f 40/160/3 38/159/3 71/70/3 72/49/3
f 38/161/6 40/162/6 76/163/6 75/164/6
f 9/165/1 38/166/1 75/167/1 74/168/1
f 19/169/4 41/170/4 77/61/4 78/109/4
f 26/171/4 19/169/4 78/109/4 79/90/4
f 43/172/4 26/171/4 79/90/4 80/77/4
f 41/170/4 43/172/4 80/77/4 77/61/4
f 41/173/2 19/174/2 82/175/2 81/176/2
f 43/177/6 41/178/6 81/179/6 84/180/6
f 23/181/6 22/182/6 89/183/6 90/184/6
f 79/185/5 78/186/5 99/187/5 100/188/5
f 78/186/5 1/189/5 85/190/5 99/187/5
f 1/189/5 70/191/5 98/192/5 85/190/5
f 69/193/5 3/194/5 86/195/5 97/196/5
f 7/197/5 63/198/5 96/199/5 88/200/5
f 62/201/5 5/202/5 87/203/5 95/204/5
f 63/198/5 62/201/5 95/204/5 96/199/5
f 54/205/5 53/206/5 93/207/5 94/208/5
f 31/209/6 32/210/6 92/211/6 91/212/6
f 70/191/5 69/193/5 97/196/5 98/192/5
f 32/210/6 23/181/6 90/184/6 92/211/6
f 3/194/5 54/205/5 94/208/5 86/195/5
f 53/206/5 7/197/5 88/200/5 93/207/5
f 22/182/6 31/209/6 91/212/6 89/183/6
f 5/202/5 79/185/5 100/188/5 87/203/5
f 94/213/1 93/214/1 109/215/1 110/216/1
f 91/217/3 92/218/3 108/219/3 107/220/3
f 98/221/3 97/222/3 113/223/3 114/224/3
f 92/225/4 90/226/4 106/227/4 108/228/4
f 86/229/1 94/213/1 110/216/1 102/230/1
f 93/214/1 88/231/1 104/232/1 109/215/1
f 89/233/1 91/234/1 107/235/1 105/236/1
f 87/237/4 100/238/4 116/239/4 103/240/4
f 107/241/6 111/242/6 103/243/6 116/244/6
f 108/245/6 112/246/6 111/242/6 107/241/6
f 109/247/6 104/248/6 112/246/6 108/245/6
f 102/249/6 110/250/6 106/251/6 113/252/6
f 113/252/6 106/251/6 105/253/6 114/254/6
f 114/254/6 105/253/6 115/255/6 101/256/6
f 110/250/6 109/247/6 108/245/6 106/251/6
f 105/253/6 107/241/6 116/244/6 115/255/6
f 96/257/2 95/258/2 111/259/2 112/260/2
f 95/258/2 87/261/2 103/262/2 111/259/2
f 88/263/2 96/257/2 112/260/2 104/264/2
f 97/222/3 86/265/3 102/266/3 113/223/3
f 85/267/3 98/221/3 114/224/3 101/268/3
f 99/269/4 85/270/4 101/271/4 115/272/4
f 100/238/4 99/269/4 115/272/4 116/239/4
f 90/273/2 89/274/2 105/275/2 106/276/2
usemtl roof_with_logo
f 52/277/5 49/278/5 50/279/5 51/280/5
