# Blender v2.79 (sub 0) OBJ File: 'cube_trans.blend'
# www.blender.org
mtllib ltrans.mtl
o Cube
v -148.000000 -0.097886 30.000000
v -144.867752 86.453918 26.867756
v -148.000000 -0.097886 -30.000000
v -144.867752 86.453918 -26.867756
v 32.000000 -0.097886 30.000000
v 28.867756 86.453918 26.867756
v 32.000000 -0.097886 -30.000000
v 32.000000 86.453918 -30.000000
v -28.000000 -0.097886 -30.000000
v -28.000000 86.453918 -30.000000
v -28.000000 -0.097886 30.000000
v -28.000000 86.453918 26.867754
v -24.867756 86.453918 -146.867752
v 28.867756 86.453918 -146.867752
v 32.000000 -0.097886 -150.000000
v -28.000000 -0.097886 -150.000000
v -148.000000 86.453918 30.000000
v -148.000000 86.453918 -30.000000
v 28.867754 86.453918 -30.000000
v 32.000000 86.453918 30.000000
v -28.000000 86.453918 30.000000
v -24.867756 86.453918 -26.867756
v -28.000000 86.453918 -150.000000
v 32.000000 86.453918 -150.000000
v -24.867756 84.689369 -26.867756
v 28.867754 84.689369 -30.000000
v -28.000000 84.689369 26.867754
v -144.867752 84.689369 26.867756
v -144.867752 84.689369 -26.867756
v 28.867756 84.689369 26.867756
v -24.867756 84.689369 -146.867752
v 28.867756 84.689369 -146.867752
v -148.000000 83.762115 30.000000
v -148.000000 83.762115 -30.000000
v 32.000000 83.762115 -30.000000
v 32.000000 83.762115 30.000000
v -28.000000 83.762115 30.000000
v -28.000000 83.762115 -30.000000
v 32.000000 83.762115 -150.000000
v -28.000000 83.762115 -150.000000
v -148.000000 1.624028 -30.000000
v 32.000000 1.624028 -30.000000
v 32.000000 1.624028 30.000000
v -28.000000 1.624028 30.000000
v -28.000000 1.624028 -30.000000
v 32.000000 1.624028 -150.000000
v -28.000000 1.624028 -150.000000
v -148.000000 1.624028 30.000000
vt 0.405621 0.809822
vt 0.405621 0.803782
vt 0.538830 0.803782
vt 0.538830 0.809822
vt 0.411598 0.530496
vt 0.405621 0.530496
vt 0.405621 0.395873
vt 0.411598 0.395873
vt 0.787957 0.530496
vt 0.793934 0.530496
vt 0.793934 0.799743
vt 0.787958 0.799743
vt 0.268416 0.136643
vt 0.268416 0.002019
vt 0.401625 0.002019
vt 0.401625 0.136643
vt 0.268416 0.405890
vt 0.401625 0.405890
vt 0.787957 0.395873
vt 0.793934 0.395873
vt 0.803906 0.665120
vt 0.797930 0.665120
vt 0.797930 0.395873
vt 0.803906 0.395873
vt 0.797930 0.675198
vt 0.797930 0.669159
vt 0.931139 0.669159
vt 0.931139 0.675198
vt 0.001998 0.136643
vt 0.001998 0.002019
vt 0.801313 0.271266
vt 0.795336 0.271266
vt 0.795336 0.002019
vt 0.801313 0.002019
vt 0.008952 0.416956
vt 0.008952 0.537524
vt 0.001998 0.544552
vt 0.001998 0.409929
vt 0.394671 0.544552
vt 0.394671 0.416956
vt 0.401625 0.409929
vt 0.401625 0.544552
vt 0.268416 0.416956
vt 0.268416 0.409929
vt 0.275370 0.537524
vt 0.268416 0.544552
vt 0.275370 0.806771
vt 0.394671 0.806771
vt 0.401625 0.813799
vt 0.268416 0.813799
vt 0.524922 0.122587
vt 0.531876 0.002019
vt 0.791340 0.002019
vt 0.791340 0.122587
vt 0.524922 0.391834
vt 0.405621 0.391834
vt 0.405621 0.129615
vt 0.405621 0.002019
vt 0.411598 0.799743
vt 0.405621 0.799743
vt 0.946967 0.669159
vt 0.946967 0.938406
vt 0.943049 0.938406
vt 0.943049 0.669159
vt 0.546744 0.803782
vt 0.546744 0.924350
vt 0.542827 0.924350
vt 0.542827 0.803782
vt 0.935135 0.938406
vt 0.935135 0.669159
vt 0.939053 0.669159
vt 0.939053 0.938406
vt 0.593956 0.530496
vt 0.597779 0.530496
vt 0.597779 0.799743
vt 0.593957 0.799743
vt 0.994084 0.785688
vt 0.994084 0.658092
vt 0.998002 0.658092
vt 0.998002 0.785688
vt 0.994084 0.395873
vt 0.998002 0.395873
vt 0.991491 0.129615
vt 0.991491 0.002019
vt 0.995408 0.002019
vt 0.995408 0.129615
vt 0.991491 0.391834
vt 0.995408 0.391834
vt 0.550740 0.924350
vt 0.550740 0.803782
vt 0.554658 0.803782
vt 0.554658 0.924350
vt 0.405621 0.997981
vt 0.405621 0.994117
vt 0.538830 0.994117
vt 0.538830 0.997981
vt 0.593956 0.395873
vt 0.597779 0.395873
vt 0.601776 0.530496
vt 0.605599 0.530496
vt 0.605599 0.799743
vt 0.601776 0.799743
vt 0.601776 0.395873
vt 0.605599 0.395873
vt 0.990088 0.665120
vt 0.986265 0.665120
vt 0.986265 0.395873
vt 0.990088 0.395873
vt 0.797930 0.863357
vt 0.797930 0.859493
vt 0.931139 0.859493
vt 0.931139 0.863357
vt 0.987494 0.271266
vt 0.983671 0.271266
vt 0.983671 0.002019
vt 0.987494 0.002019
vt 0.255277 0.841158
vt 0.159443 0.841158
vt 0.159443 0.584987
vt 0.255277 0.584987
vt 0.142543 0.980824
vt 0.046709 0.980824
vt 0.046709 0.724653
vt 0.142543 0.724653
vn -1.0000 0.0000 0.0000
vn 1.0000 0.0000 0.0000
vn 0.0000 0.0000 1.0000
vn 0.0000 -1.0000 0.0000
vn 0.0000 0.0000 -1.0000
vn 0.0000 1.0000 0.0000
usemtl roof.001
s off
f 33/1/1 17/2/1 18/3/1 34/4/1
f 35/5/2 8/6/2 20/7/2 36/8/2
f 37/9/3 21/10/3 17/11/3 33/12/3
f 9/13/4 7/14/4 5/15/4 11/16/4
f 3/17/4 9/13/4 11/16/4 1/18/4
f 36/19/3 20/20/3 21/10/3 37/9/3
f 34/21/5 18/22/5 10/23/5 38/24/5
f 40/25/5 23/26/5 24/27/5 39/28/5
f 7/14/4 9/13/4 16/29/4 15/30/4
f 38/31/1 10/32/1 23/33/1 40/34/1
f 2/35/6 4/36/6 18/37/6 17/38/6
f 19/39/6 6/40/6 20/41/6 8/42/6
f 12/43/6 2/35/6 17/38/6 21/44/6
f 4/36/6 22/45/6 10/46/6 18/37/6
f 6/40/6 12/43/6 21/44/6 20/41/6
f 13/47/6 14/48/6 24/49/6 23/50/6
f 14/48/6 19/39/6 8/42/6 24/49/6
f 22/45/6 13/47/6 23/50/6 10/46/6
f 25/51/6 26/52/6 32/53/6 31/54/6
f 25/51/6 29/55/6 28/56/6 27/57/6
f 26/52/6 25/51/6 27/57/6 30/58/6
f 8/6/2 35/5/2 39/59/2 24/60/2
usemtl led
f 22/61/3 4/62/3 29/63/3 25/64/3
f 14/65/3 13/66/3 31/67/3 32/68/3
f 13/69/2 22/70/2 25/71/2 31/72/2
f 42/73/2 7/74/2 15/75/2 46/76/2
f 6/77/1 19/78/1 26/79/1 30/80/1
f 19/78/1 14/81/1 32/82/1 26/79/1
f 12/83/5 6/84/5 30/85/5 27/86/5
f 2/87/5 12/83/5 27/86/5 28/88/5
f 4/89/2 2/90/2 28/91/2 29/92/2
f 1/93/1 48/94/1 41/95/1 3/96/1
f 7/74/2 42/73/2 43/97/2 5/98/2
f 11/99/3 44/100/3 48/101/3 1/102/3
f 5/103/3 43/104/3 44/100/3 11/99/3
f 3/105/5 41/106/5 45/107/5 9/108/5
f 16/109/5 47/110/5 46/111/5 15/112/5
f 9/113/1 45/114/1 47/115/1 16/116/1
usemtl wall
f 45/114/1 38/31/1 40/34/1 47/115/1
f 47/117/5 40/118/5 39/119/5 46/120/5
f 41/106/5 34/21/5 38/24/5 45/107/5
f 43/104/3 36/19/3 37/9/3 44/100/3
f 44/100/3 37/9/3 33/12/3 48/101/3
f 42/73/2 35/5/2 36/8/2 43/97/2
f 48/121/1 33/122/1 34/123/1 41/124/1
f 35/5/2 42/73/2 46/76/2 39/59/2
