# Blender v2.79 (sub 0) OBJ File: 'buildings.blend'
# www.blender.org
mtllib simlebuilding.mtl
o Cube.002
v -0.632003 -0.000000 -0.630304
v -0.632003 2.375142 -0.630304
v 0.629923 -0.000000 -0.630304
v 0.629923 2.375142 -0.630304
v -0.632003 -0.000000 0.631622
v -0.632003 2.375142 0.631622
v 0.629923 -0.000000 0.631622
v 0.629923 2.375142 0.631622
v -0.620268 -0.000000 -0.630304
v -0.620268 2.375142 -0.630304
v -0.620268 -0.000000 0.631622
v -0.620268 2.375142 0.631622
v 0.620268 2.375142 -0.630304
v 0.620268 -0.000000 0.631622
v 0.620268 -0.000000 -0.630304
v 0.620268 2.375142 0.631622
v 0.629923 -0.000000 -0.621051
v 0.629923 2.375142 -0.621051
v -0.632003 -0.000000 -0.621051
v -0.632003 2.375142 -0.621051
v -0.620268 2.375142 -0.621051
v -0.620268 -0.000000 -0.621051
v 0.620268 -0.000000 -0.621051
v 0.620268 2.375142 -0.621051
v 0.629923 2.375142 0.621051
v -0.632003 -0.000000 0.621051
v -0.620268 2.375142 0.621051
v 0.620268 2.375142 0.621051
v 0.629923 -0.000000 0.621051
v -0.632003 2.375142 0.621051
v -0.620268 -0.000000 0.621051
v 0.620268 -0.000000 0.621051
v -0.632003 2.357549 -0.630304
v 0.629923 2.357549 -0.630304
v 0.629923 2.357549 0.631622
v -0.632003 2.357549 0.631622
v -0.620268 2.357549 0.631622
v -0.620268 2.357549 -0.630304
v 0.620268 2.357549 0.631622
v 0.620268 2.357549 -0.630304
v -0.632003 2.357549 -0.621051
v 0.629923 2.357549 -0.621051
v -0.632003 2.357549 0.621051
v 0.629923 2.357549 0.621051
vt 0.658159 0.211465
vt 0.658159 0.645462
vt 0.360759 0.645462
vt 0.360759 0.211465
vt 0.315208 0.484169
vt 0.315208 0.979682
vt 0.017809 0.979682
vt 0.017809 0.484169
vt 0.981596 0.386733
vt 0.981597 0.842315
vt 0.684572 0.842315
vt 0.684572 0.386733
vt 0.017906 0.453115
vt 0.017905 0.035901
vt 0.314930 0.035901
vt 0.314930 0.453115
vt 0.684572 0.845714
vt 0.682261 0.845714
vt 0.682261 0.842315
vt 0.360759 0.648701
vt 0.358228 0.648701
vt 0.358228 0.645462
vt 0.314930 0.032787
vt 0.317739 0.032787
vt 0.317739 0.035901
vt 0.017809 0.983380
vt 0.015594 0.983380
vt 0.015594 0.979682
vt 0.648542 0.169674
vt 0.651073 0.169674
vt 0.651073 0.171118
vt 0.648542 0.171118
vt 0.684476 0.017252
vt 0.682260 0.017252
vt 0.682260 0.015808
vt 0.684476 0.015808
vt 0.684476 0.169930
vt 0.682260 0.169930
vt 0.648542 0.016996
vt 0.651073 0.016996
vt 0.017905 0.032787
vt 0.984406 0.842315
vt 0.984406 0.845714
vt 0.981597 0.845714
vt 0.015594 0.035901
vt 0.015594 0.032787
vt 0.648542 0.015808
vt 0.651073 0.015808
vt 0.684476 0.171118
vt 0.682260 0.171118
vt 0.981875 0.171118
vt 0.981875 0.169930
vt 0.348927 0.015808
vt 0.351142 0.015808
vt 0.351142 0.016996
vt 0.348927 0.016996
vt 0.351143 0.169674
vt 0.348927 0.169674
vt 0.981875 0.017252
vt 0.981875 0.015808
vt 0.351143 0.171118
vt 0.348927 0.171118
vt 0.315208 0.983380
vt 0.660374 0.645462
vt 0.660374 0.648701
vt 0.658159 0.648701
vt 0.317740 0.979682
vt 0.317740 0.983380
vt 0.984406 0.017252
vt 0.984406 0.015808
vt 0.984406 0.169930
vt 0.984406 0.171118
vt 0.317739 0.484169
vt 0.660374 0.211465
vt 0.015594 0.453115
vt 0.984406 0.386733
vt 0.015594 0.484169
vt 0.317740 0.453115
vt 0.358228 0.211465
vt 0.682260 0.386733
vn 1.0000 0.0000 0.0000
vn -1.0000 0.0000 0.0000
vn 0.0000 0.0000 -1.0000
vn 0.0000 0.0000 1.0000
vn 0.0000 -1.0000 0.0000
vn 0.0000 1.0000 0.0000
usemtl codewalls
s off
f 17/1/1 42/2/1 44/3/1 29/4/1
f 26/5/2 43/6/2 41/7/2 19/8/2
f 9/9/3 38/10/3 40/11/3 15/12/3
f 14/13/4 39/14/4 37/15/4 11/16/4
usemtl led
f 40/11/3 13/17/3 4/18/3 34/19/3
f 44/3/1 25/20/1 8/21/1 35/22/1
f 37/15/4 12/23/4 6/24/4 36/25/4
f 41/7/2 20/26/2 2/27/2 33/28/2
f 31/29/5 11/30/5 5/31/5 26/32/5
f 21/33/6 10/34/6 2/35/6 20/36/6
f 24/37/6 13/38/6 10/34/6 21/33/6
f 32/39/5 14/40/5 11/30/5 31/29/5
f 39/14/4 16/41/4 12/23/4 37/15/4
f 33/42/3 2/43/3 10/44/3 38/10/3
f 35/45/4 8/46/4 16/41/4 39/14/4
f 29/47/5 7/48/5 14/40/5 32/39/5
f 18/49/6 4/50/6 13/38/6 24/37/6
f 38/10/3 10/44/3 13/17/3 40/11/3
f 25/51/6 18/49/6 24/37/6 28/52/6
f 3/53/5 17/54/5 23/55/5 15/56/5
f 15/56/5 23/55/5 22/57/5 9/58/5
f 27/59/6 21/33/6 20/36/6 30/60/6
f 9/58/5 22/57/5 19/61/5 1/62/5
f 43/6/2 30/63/2 20/26/2 41/7/2
f 34/64/1 4/65/1 18/66/1 42/2/1
f 36/67/2 6/68/2 30/63/2 43/6/2
f 12/69/6 27/59/6 30/60/6 6/70/6
f 16/71/6 28/52/6 27/59/6 12/69/6
f 8/72/6 25/51/6 28/52/6 16/71/6
f 17/54/5 29/47/5 32/39/5 23/55/5
f 22/57/5 31/29/5 26/32/5 19/61/5
f 42/2/1 18/66/1 25/20/1 44/3/1
f 5/73/2 36/67/2 43/6/2 26/5/2
f 3/74/1 34/64/1 42/2/1 17/1/1
f 7/75/4 35/45/4 39/14/4 14/13/4
f 1/76/3 33/42/3 38/10/3 9/9/3
f 19/8/2 41/7/2 33/28/2 1/77/2
f 11/16/4 37/15/4 36/25/4 5/78/4
f 29/4/1 44/3/1 35/22/1 7/79/1
f 15/12/3 40/11/3 34/19/3 3/80/3
usemtl topofthebuilding
f 28/52/6 24/37/6 21/33/6 27/59/6
