# Blender v2.79 (sub 0) OBJ File: ''
# www.blender.org
mtllib Tower_s.mtl
o Cube
v -27.216669 -0.000007 30.000000
v -30.000000 -0.000007 27.216669
v -27.724228 207.221970 26.274015
v -26.274015 207.221970 27.724228
v -30.000000 -0.000007 -27.216669
v -27.216669 -0.000007 -30.000000
v -26.274015 207.221970 -27.724228
v -27.724228 207.221970 -26.274015
v 30.000000 -0.000007 27.216669
v 27.216669 -0.000007 30.000000
v 26.274015 207.221970 27.724228
v 27.724228 207.221970 26.274015
v 27.216669 -0.000007 -30.000000
v 30.000000 -0.000007 -27.216669
v 27.724228 207.221970 -26.274015
v 26.274015 207.221970 -27.724228
v -27.216669 207.221970 30.000000
v -30.000000 207.221970 27.216669
v -30.000000 207.221970 -27.216669
v -27.216669 207.221970 -30.000000
v 27.216669 207.221970 -30.000000
v 30.000000 207.221970 -27.216669
v 30.000000 207.221970 27.216669
v 27.216669 207.221970 30.000000
v -26.274015 203.576462 27.724228
v -27.724228 203.576462 26.274015
v -27.724228 203.576462 -26.274015
v -26.274015 203.576462 -27.724228
v 26.274015 203.576462 -27.724228
v 27.724228 203.576462 -26.274015
v 27.724228 203.576462 26.274015
v 26.274015 203.576462 27.724228
v -27.216669 7.050118 30.000000
v -30.000000 7.050118 27.216669
v -27.216669 7.050118 -30.000000
v -30.000000 7.050118 -27.216669
v 30.000000 7.050118 -27.216669
v 27.216669 7.050118 -30.000000
v 27.216669 7.050118 30.000000
v 30.000000 7.050118 27.216669
v -37.245777 -0.000007 33.790199
v -33.790199 -0.000007 37.245777
v -37.245777 7.050118 33.790199
v -33.790199 7.050118 -37.245777
v -33.790199 -0.000007 -37.245777
v -37.245777 -0.000007 -33.790199
v 37.245777 7.050118 -33.790199
v 37.245777 -0.000007 -33.790199
v 33.790199 -0.000007 -37.245777
v 33.790199 7.050118 37.245777
v 33.790199 -0.000007 37.245777
v 37.245777 -0.000007 33.790199
v -33.790199 7.050118 37.245777
v -37.245777 7.050118 -33.790199
v 33.790199 7.050118 -37.245777
v 37.245777 7.050118 33.790199
v -27.216669 203.521393 30.000000
v -30.000000 203.521393 -27.216669
v 27.216669 203.521393 -30.000000
v 30.000000 203.521393 27.216669
v -30.000000 203.521393 27.216669
v -27.216669 203.521393 -30.000000
v 30.000000 203.521393 -27.216669
v 27.216669 203.521393 30.000000
v -37.245777 4.700074 33.790199
v -37.245777 2.350030 33.790199
v -33.790199 4.700074 -37.245777
v -33.790199 2.350030 -37.245777
v 37.245777 4.700074 -33.790199
v 37.245777 2.350030 -33.790199
v 33.790199 4.700074 37.245777
v 33.790199 2.350030 37.245777
v -33.790199 2.350037 37.245777
v -33.790199 4.700074 37.245777
v -37.245777 2.350037 -33.790199
v -37.245777 4.700074 -33.790199
v 33.790199 2.350037 -37.245777
v 33.790199 4.700074 -37.245777
v 37.245777 2.350037 33.790199
v 37.245777 4.700074 33.790199
vt 0.223253 0.016533
vt 0.223253 0.003234
vt 0.408832 0.003234
vt 0.408832 0.016533
vt 0.801754 0.709296
vt 0.801754 0.722595
vt 0.616175 0.722595
vt 0.616175 0.709296
vt 0.012558 0.016533
vt 0.012558 0.003234
vt 0.198137 0.003234
vt 0.198137 0.016533
vt 0.414969 0.016533
vt 0.414969 0.003234
vt 0.600549 0.003234
vt 0.600549 0.016533
vt 0.003068 0.016533
vt 0.003068 0.003234
vt 0.037261 0.755103
vt 0.027771 0.765106
vt 0.003068 0.741482
vt 0.014849 0.729064
vt 0.027771 0.960724
vt 0.003068 0.984347
vt 0.845436 0.960724
vt 0.845436 0.765106
vt 0.870139 0.741482
vt 0.870139 0.984347
vt 0.650367 0.970726
vt 0.640878 0.960724
vt 0.640878 0.765106
vt 0.650367 0.755103
vt 0.835947 0.755103
vt 0.835947 0.970726
vt 0.413239 0.931297
vt 0.418183 0.936509
vt 0.414969 0.944687
vt 0.405480 0.934685
vt 0.597335 0.936509
vt 0.602279 0.931297
vt 0.610038 0.934685
vt 0.600549 0.944687
vt 0.602279 0.742454
vt 0.597335 0.737243
vt 0.600549 0.729064
vt 0.610038 0.739067
vt 0.418183 0.737243
vt 0.413239 0.742454
vt 0.405480 0.739067
vt 0.414969 0.729064
vt 0.991987 0.003234
vt 0.996932 0.008446
vt 0.996932 0.197289
vt 0.991987 0.202500
vt 0.812835 0.202500
vt 0.807891 0.197289
vt 0.807891 0.008446
vt 0.812835 0.003234
vt 0.222840 0.755103
vt 0.245251 0.729064
vt 0.627956 0.729064
vt 0.858358 0.729064
vt 0.616175 0.741482
vt 0.037261 0.970726
vt 0.222840 0.970726
vt 0.245251 0.996766
vt 0.014849 0.996766
vt 0.616175 0.984347
vt 0.232329 0.765106
vt 0.257033 0.741482
vt 0.627956 0.996766
vt 0.232330 0.960724
vt 0.257033 0.984347
vt 0.858358 0.996766
vt 0.207626 0.003234
vt 0.207626 0.016533
vt 0.610038 0.003234
vt 0.610038 0.016533
vt 0.213763 0.016533
vt 0.213763 0.003234
vt 0.876249 0.221387
vt 0.884261 0.221387
vt 0.884261 0.464252
vt 0.876249 0.464252
vt 0.854088 0.713586
vt 0.846076 0.713586
vt 0.846076 0.470721
vt 0.854088 0.470721
vt 0.823915 0.464252
vt 0.815903 0.464252
vt 0.815903 0.221387
vt 0.823915 0.221387
vt 0.846076 0.208969
vt 0.854088 0.208969
vt 0.854088 0.451834
vt 0.846076 0.451834
vt 0.823915 0.476671
vt 0.815903 0.476671
vt 0.876249 0.208969
vt 0.884261 0.208969
vt 0.854088 0.464252
vt 0.846076 0.464252
vt 0.815903 0.208969
vt 0.823915 0.208969
vt 0.807891 0.488351
vt 0.807891 0.483139
vt 0.820320 0.483139
vt 0.820320 0.488351
vt 0.263169 0.923118
vt 0.263169 0.917907
vt 0.275598 0.917907
vt 0.275598 0.923118
vt 0.281735 0.923118
vt 0.281735 0.734276
vt 0.294163 0.734276
vt 0.294163 0.923118
vt 0.263169 0.729064
vt 0.275598 0.729064
vt 0.807891 0.682405
vt 0.807891 0.677194
vt 0.820320 0.677194
vt 0.820320 0.682405
vt 0.281735 0.729064
vt 0.294163 0.729064
vt 0.300300 0.917907
vt 0.300300 0.729064
vt 0.312729 0.729064
vt 0.312729 0.917907
vt 0.223253 0.722595
vt 0.213763 0.722595
vt 0.610038 0.722595
vt 0.600549 0.722595
vt 0.207627 0.722595
vt 0.198137 0.722595
vt 0.831927 0.208969
vt 0.831927 0.221387
vt 0.838064 0.464252
vt 0.838064 0.451834
vt 0.868237 0.221387
vt 0.868237 0.208969
vt 0.807891 0.476671
vt 0.807891 0.464252
vt 0.862100 0.208969
vt 0.862100 0.451834
vt 0.807891 0.221387
vt 0.838064 0.713586
vt 0.838064 0.470721
vt 0.892273 0.221387
vt 0.892273 0.464252
vt 0.003068 0.722595
vt 0.012558 0.722595
vt 0.868237 0.464252
vt 0.862100 0.713586
vt 0.862100 0.470721
vt 0.831927 0.464252
vt 0.838064 0.208969
vt 0.831927 0.476671
vt 0.892273 0.208969
vt 0.862100 0.464252
vt 0.807891 0.208969
vt 0.414969 0.722595
vt 0.801754 0.003234
vt 0.616175 0.003234
vt 0.408832 0.722595
vn 0.0000 0.0000 1.0000
vn 1.0000 0.0000 0.0000
vn -1.0000 0.0000 0.0000
vn 0.0000 0.0000 -1.0000
vn -0.7071 0.0000 0.7071
vn 0.0000 1.0000 0.0000
vn 0.0000 -1.0000 0.0000
vn -0.7071 0.0000 -0.7071
vn 0.7071 0.0000 -0.7071
vn 0.7071 0.0000 0.7071
usemtl roof
s off
f 64/1/1 24/2/1 17/3/1 57/4/1
f 63/5/2 22/6/2 23/7/2 60/8/2
f 61/9/3 18/10/3 19/11/3 58/12/3
f 62/13/4 20/14/4 21/15/4 59/16/4
f 57/17/5 17/18/5 18/10/5 61/9/5
f 40/19/6 39/20/6 50/21/6 56/22/6
f 39/20/6 33/23/6 53/24/6 50/21/6
f 1/25/7 10/26/7 51/27/7 42/28/7
f 5/29/7 6/30/7 13/31/7 14/32/7 9/33/7 10/26/7 1/25/7 2/34/7
f 4/35/6 3/36/6 18/37/6 17/38/6
f 8/39/6 7/40/6 20/41/6 19/42/6
f 16/43/6 15/44/6 22/45/6 21/46/6
f 12/47/6 11/48/6 24/49/6 23/50/6
f 3/36/6 8/39/6 19/42/6 18/37/6
f 11/48/6 4/35/6 17/38/6 24/49/6
f 15/44/6 12/47/6 23/50/6 22/45/6
f 7/40/6 16/43/6 21/46/6 20/41/6
f 30/51/6 29/52/6 28/53/6 27/54/6 26/55/6 25/56/6 32/57/6 31/58/6
f 37/59/6 40/19/6 56/22/6 47/60/6
f 9/33/7 14/32/7 48/61/7 52/62/7
f 14/32/7 13/31/7 49/63/7 48/61/7
f 34/64/6 36/65/6 54/66/6 43/67/6
f 13/31/7 6/30/7 45/68/7 49/63/7
f 38/69/6 37/59/6 47/60/6 55/70/6
f 6/30/7 5/29/7 46/71/7 45/68/7
f 10/26/7 9/33/7 52/62/7 51/27/7
f 36/65/6 35/72/6 44/73/6 54/66/6
f 2/34/7 1/25/7 42/28/7 41/74/7
f 33/23/6 34/64/6 43/67/6 53/24/6
f 5/29/7 2/34/7 41/74/7 46/71/7
f 35/72/6 38/69/6 55/70/6 44/73/6
f 20/75/8 62/76/8 58/12/8 19/11/8
f 22/77/9 63/78/9 59/16/9 21/15/9
f 24/2/10 64/1/10 60/79/10 23/80/10
f 72/81/1 71/82/1 74/83/1 73/84/1
f 70/85/2 69/86/2 80/87/2 79/88/2
f 66/89/3 65/90/3 76/91/3 75/92/3
f 68/93/4 67/94/4 78/95/4 77/96/4
f 73/97/5 74/98/5 65/90/5 66/89/5
f 71/82/10 72/81/10 79/99/10 80/100/10
f 69/101/9 70/102/9 77/96/9 78/95/9
f 67/103/8 68/104/8 75/92/8 76/91/8
usemtl led
f 15/105/5 16/106/5 29/107/5 30/108/5
f 3/109/9 4/110/9 25/111/9 26/112/9
f 16/113/1 7/114/1 28/115/1 29/116/1
f 4/110/4 11/117/4 32/118/4 25/111/4
f 11/119/8 12/120/8 31/121/8 32/122/8
f 7/114/10 8/123/10 27/124/10 28/115/10
f 12/120/3 15/105/3 30/108/3 31/121/3
f 8/125/2 3/126/2 26/127/2 27/128/2
f 64/1/10 39/129/10 40/130/10 60/79/10
f 63/78/9 37/131/9 38/132/9 59/16/9
f 62/76/8 35/133/8 36/134/8 58/12/8
f 68/104/8 45/135/8 46/136/8 75/92/8
f 70/102/9 48/137/9 49/138/9 77/96/9
f 72/81/10 51/139/10 52/140/10 79/99/10
f 74/98/5 53/141/5 43/142/5 65/90/5
f 67/94/4 44/143/4 55/144/4 78/95/4
f 65/90/3 43/142/3 54/145/3 76/91/3
f 69/86/2 47/146/2 56/147/2 80/87/2
f 71/82/1 50/148/1 53/149/1 74/83/1
f 33/150/5 57/17/5 61/9/5 34/151/5
f 51/139/1 72/81/1 73/84/1 42/152/1
f 48/153/2 70/85/2 79/88/2 52/154/2
f 41/155/3 66/89/3 75/92/3 46/136/3
f 45/156/4 68/93/4 77/96/4 49/138/4
f 42/157/5 73/97/5 66/89/5 41/155/5
f 50/148/10 71/82/10 80/100/10 56/158/10
f 47/159/9 69/101/9 78/95/9 55/144/9
f 44/160/8 67/103/8 76/91/8 54/145/8
usemtl wallstran
f 35/161/4 62/13/4 59/16/4 38/132/4
f 34/151/3 61/9/3 58/12/3 36/134/3
f 37/162/2 63/5/2 60/8/2 40/163/2
f 39/129/1 64/1/1 57/4/1 33/164/1
