# Blender v2.79 (sub 0) OBJ File: ''
# www.blender.org
mtllib clickhouse.mtl
o Cube.001
v -2.736553 -0.184737 1.002134
v -2.736553 0.184737 1.002134
v -2.736553 -0.184737 -1.002134
v -2.736553 0.184737 -1.002134
v -2.486000 -0.184737 1.002134
v -2.486000 0.184737 1.002134
v -2.486000 -0.184737 -1.002134
v -2.486000 0.184737 -1.002134
v -3.230143 -0.184737 1.002134
v -3.230143 0.184737 1.002134
v -3.230143 -0.184737 -1.002134
v -3.230143 0.184737 -1.002134
v -2.979590 -0.184737 1.002134
v -2.979590 0.184737 1.002134
v -2.979590 -0.184737 -1.002134
v -2.979590 0.184737 -1.002134
v -3.723733 -0.184737 1.002134
v -3.723733 0.184737 1.002134
v -3.723733 -0.184737 -1.002134
v -3.723733 0.184737 -1.002134
v -3.473180 -0.184737 1.002134
v -3.473180 0.184737 1.002134
v -3.473180 -0.184737 -1.002134
v -3.473180 0.184737 -1.002134
v -4.217323 -0.184737 1.002134
v -4.217323 0.184737 1.002134
v -4.217323 -0.184737 -1.002134
v -4.217323 0.184737 -1.002134
v -3.966770 -0.184737 1.002134
v -3.966770 0.184737 1.002134
v -3.966770 -0.184737 -1.002134
v -3.966770 0.184737 -1.002134
v -4.217323 -0.184737 0.762567
v -4.217323 0.184737 0.762567
v -3.966770 -0.184737 0.762567
v -3.966770 0.184737 0.762567
v -2.260428 -0.184737 0.185799
v -2.260428 0.184737 0.185799
v -2.260428 -0.184737 -0.185799
v -2.260428 0.184737 -0.185799
v -2.009874 -0.184737 0.185799
v -2.009874 0.184737 0.185799
v -2.009874 -0.184737 -0.185799
v -2.009874 0.184737 -0.185799
vt 0.664240 0.197087
vt 0.502427 0.197087
vt 0.502427 0.002913
vt 0.664240 0.002913
vt 0.164239 0.597087
vt 0.002427 0.597087
vt 0.002427 0.402913
vt 0.164239 0.402913
vt 0.164240 0.397087
vt 0.002427 0.397087
vt 0.002427 0.202913
vt 0.164239 0.202913
vt 0.002427 0.797087
vt 0.002427 0.602913
vt 0.164239 0.602913
vt 0.164239 0.797087
vt 0.664239 0.997087
vt 0.502427 0.997087
vt 0.502427 0.802913
vt 0.664239 0.802913
vt 0.330906 0.802913
vt 0.330906 0.997087
vt 0.169094 0.997087
vt 0.169094 0.802913
vt 0.664240 0.597087
vt 0.502427 0.597087
vt 0.502427 0.402913
vt 0.664239 0.402913
vt 0.664240 0.397087
vt 0.502427 0.397087
vt 0.502427 0.202913
vt 0.664240 0.202913
vt 0.330906 0.797087
vt 0.169094 0.797087
vt 0.169094 0.602913
vt 0.330906 0.602913
vt 0.669094 0.797087
vt 0.669094 0.602913
vt 0.830906 0.602913
vt 0.830906 0.797087
vt 0.335761 0.997087
vt 0.335761 0.802913
vt 0.497573 0.802913
vt 0.497573 0.997087
vt 0.164239 0.802913
vt 0.164239 0.997087
vt 0.002427 0.997087
vt 0.002427 0.802913
vt 0.497573 0.397087
vt 0.335761 0.397087
vt 0.335761 0.202913
vt 0.497573 0.202913
vt 0.335761 0.402913
vt 0.497573 0.402913
vt 0.497573 0.597087
vt 0.335761 0.597087
vt 0.830906 0.997087
vt 0.669094 0.997087
vt 0.669094 0.802913
vt 0.830906 0.802913
vt 0.169094 0.597087
vt 0.169094 0.402913
vt 0.330906 0.402913
vt 0.330906 0.597087
vt 0.502427 0.602913
vt 0.664239 0.602913
vt 0.664239 0.797087
vt 0.502427 0.797087
vt 0.830906 0.197087
vt 0.669094 0.197087
vt 0.669094 0.002913
vt 0.830906 0.002913
vt 0.997573 0.173878
vt 0.835761 0.173878
vt 0.835761 0.002913
vt 0.997573 0.002913
vt 0.164239 0.197087
vt 0.002427 0.197087
vt 0.002427 0.002913
vt 0.164239 0.002913
vt 0.497573 0.026122
vt 0.335761 0.026122
vt 0.335761 0.002913
vt 0.497573 0.002913
vt 0.169094 0.197087
vt 0.169094 0.002913
vt 0.330906 0.002913
vt 0.330906 0.197087
vt 0.811565 0.597087
vt 0.811565 0.402913
vt 0.830906 0.402913
vt 0.830906 0.597087
vt 0.688435 0.202913
vt 0.688435 0.397087
vt 0.669094 0.397087
vt 0.669094 0.202913
vt 0.830906 0.202913
vt 0.830906 0.397087
vt 0.669094 0.597087
vt 0.669094 0.402913
vt 0.497573 0.197087
vt 0.335761 0.197087
vt 0.997573 0.197087
vt 0.835761 0.197087
vt 0.835761 0.397087
vt 0.835761 0.202913
vt 0.865761 0.202913
vt 0.865761 0.397087
vt 0.330906 0.397087
vt 0.169094 0.397087
vt 0.169094 0.202913
vt 0.330906 0.202913
vt 0.865761 0.802913
vt 0.865761 0.997087
vt 0.835760 0.997087
vt 0.835760 0.802913
vt 0.335761 0.797087
vt 0.335761 0.602913
vt 0.497573 0.602913
vt 0.497573 0.797087
vt 0.835760 0.797087
vt 0.835760 0.602913
vt 0.865761 0.602913
vt 0.865761 0.797087
vt 0.865761 0.402913
vt 0.865761 0.597087
vt 0.835761 0.597087
vt 0.835761 0.402913
vn -1.0000 0.0000 0.0000
vn 0.0000 0.0000 -1.0000
vn 1.0000 0.0000 0.0000
vn 0.0000 0.0000 1.0000
vn 0.0000 -1.0000 0.0000
vn 0.0000 1.0000 0.0000
usemtl yellow
s off
f 1/1/1 2/2/1 4/3/1 3/4/1
f 3/5/2 4/6/2 8/7/2 7/8/2
f 7/9/3 8/10/3 6/11/3 5/12/3
f 5/13/4 6/14/4 2/15/4 1/16/4
f 3/17/5 7/18/5 5/19/5 1/20/5
f 8/21/6 4/22/6 2/23/6 6/24/6
f 9/25/1 10/26/1 12/27/1 11/28/1
f 11/29/2 12/30/2 16/31/2 15/32/2
f 15/33/3 16/34/3 14/35/3 13/36/3
f 13/37/4 14/38/4 10/39/4 9/40/4
f 11/41/5 15/42/5 13/43/5 9/44/5
f 16/45/6 12/46/6 10/47/6 14/48/6
f 17/49/1 18/50/1 20/51/1 19/52/1
f 19/53/2 20/54/2 24/55/2 23/56/2
f 23/57/3 24/58/3 22/59/3 21/60/3
f 21/61/4 22/62/4 18/63/4 17/64/4
f 19/65/5 23/66/5 21/67/5 17/68/5
f 24/69/6 20/70/6 18/71/6 22/72/6
f 33/73/1 34/74/1 28/75/1 27/76/1
f 27/77/2 28/78/2 32/79/2 31/80/2
f 35/81/3 36/82/3 30/83/3 29/84/3
f 29/85/4 30/86/4 26/87/4 25/88/4
f 33/89/5 35/90/5 29/91/5 25/92/5
f 36/93/6 34/94/6 26/95/6 30/96/6
f 32/97/6 28/98/6 34/94/6 36/93/6
f 27/99/5 31/100/5 35/90/5 33/89/5
f 31/101/3 32/102/3 36/82/3 35/81/3
f 25/103/1 26/104/1 34/74/1 33/73/1
f 37/105/1 38/106/1 40/107/1 39/108/1
f 39/109/2 40/110/2 44/111/2 43/112/2
f 43/113/3 44/114/3 42/115/3 41/116/3
f 41/117/4 42/118/4 38/119/4 37/120/4
f 39/121/5 43/122/5 41/123/5 37/124/5
f 44/125/6 40/126/6 38/127/6 42/128/6
