# Blender v2.79 (sub 0) OBJ File: 'elastic.blend'
# www.blender.org
mtllib elastic.mtl
o Circle.005_Circle.007
v -2.517262 -0.502891 -4.059608
v -2.240983 -0.502891 -4.086819
v -1.964707 -0.502891 -4.059608
v -1.699047 -0.502891 -3.979021
v -1.454213 -0.502891 -3.848155
v -1.265653 -0.502891 -3.693409
v -3.509267 -0.502891 -2.053756
v -3.549340 -0.502891 -2.128726
v -3.629927 -0.502891 -2.394387
v -3.657138 -0.502891 -2.670665
v -3.629927 -0.502891 -2.946943
v -3.549340 -0.502891 -3.212604
v -3.418473 -0.502891 -3.457438
v -3.242356 -0.502891 -3.672037
v -3.027757 -0.502891 -3.848154
v -2.782923 -0.502891 -3.979020
v -2.782923 0.497109 -3.979020
v -2.517262 0.497109 -4.059608
v -2.240983 0.497109 -4.086819
v -1.964707 0.497109 -4.059608
v -1.699047 0.497109 -3.979021
v -1.454213 0.497109 -3.848155
v -1.265653 0.497109 -3.693409
v -3.509267 0.497110 -2.053756
v -3.549340 0.497109 -2.128726
v -3.629927 0.497109 -2.394387
v -3.657138 0.497109 -2.670665
v -3.629927 0.497109 -2.946943
v -3.549340 0.497109 -3.212604
v -3.418473 0.497109 -3.457438
v -3.242356 0.497109 -3.672037
v -3.027757 0.497109 -3.848154
v -0.934146 -0.502891 -4.097352
v -0.934146 0.497110 -4.097352
v 0.482631 -0.502891 -4.854635
v 1.022455 -0.502891 -4.907804
v 1.562278 -0.502891 -4.854637
v 2.081357 -0.502891 -4.697176
v 2.559746 -0.502891 -4.441473
v 2.979056 -0.502891 -4.097355
v 3.323175 -0.502891 -3.678046
v 3.578879 -0.502891 -3.199659
v 3.736339 -0.502891 -2.680579
v 3.789509 -0.502891 -2.140753
v 3.736842 -0.502891 -1.606011
v -0.514836 -0.502891 -4.441471
v -0.036449 -0.502891 -4.697174
v -0.514836 0.497110 -4.441471
v 0.482631 0.497110 -4.854635
v -0.036449 0.497110 -4.697174
v 3.789509 0.497110 -2.140753
v 3.736339 0.497110 -2.680579
v 3.578879 0.497110 -3.199659
v 3.323175 0.497110 -3.678046
v 2.979056 0.497110 -4.097355
v 2.559746 0.497110 -4.441473
v 2.081357 0.497110 -4.697176
v 1.562278 0.497110 -4.854637
v 1.022455 0.497110 -4.907804
v 3.736842 0.497110 -1.606011
v 3.779811 -0.502891 2.121675
v 3.875268 -0.502891 -1.564020
v 4.217413 -0.502891 -1.381140
v 4.517307 -0.502891 -1.135024
v 4.763422 -0.502891 -0.835132
v 4.946302 -0.502891 -0.492987
v 5.058921 -0.502891 -0.121739
v 5.096948 -0.502891 0.264348
v 5.058922 -0.502891 0.650434
v 4.946305 -0.502891 1.021683
v 4.763424 -0.502891 1.363828
v 4.517310 -0.502891 1.663721
v 4.217416 -0.502891 1.909837
v 3.875272 -0.502891 2.092717
v 3.851436 -0.502891 2.357792
v 3.880412 -0.502891 2.651985
v 3.851436 -0.502891 2.946178
v 3.765623 -0.502891 3.229066
v 3.626271 -0.502891 3.489777
v 3.438735 -0.502891 3.718291
v 3.210219 -0.502891 3.905828
v 2.949509 -0.502891 4.045181
v 2.666623 -0.502891 4.130994
v 2.372430 -0.502891 4.159969
v 2.078236 -0.502891 4.130995
v 1.795348 -0.502891 4.045181
v 1.534638 -0.502891 3.905829
v 1.416249 -0.502891 3.808669
v 3.875268 0.497110 -1.564020
v 4.217413 0.497110 -1.381140
v 4.517307 0.497110 -1.135024
v 4.763422 0.497110 -0.835132
v 4.946302 0.497110 -0.492987
v 5.058921 0.497110 -0.121739
v 5.096948 0.497110 0.264348
v 5.058922 0.497110 0.650434
v 4.946305 0.497110 1.021683
v 4.763424 0.497110 1.363828
v 4.517310 0.497110 1.663721
v 4.217416 0.497110 1.909837
v 3.875272 0.497110 2.092717
v 3.779811 0.497110 2.121675
v 3.851436 0.497110 2.357792
v 3.880412 0.497110 2.651985
v 3.851436 0.497110 2.946178
v 3.765623 0.497110 3.229066
v 3.626271 0.497110 3.489777
v 3.438735 0.497110 3.718291
v 3.210219 0.497110 3.905828
v 2.949509 0.497110 4.045181
v 2.666623 0.497110 4.130994
v 2.372430 0.497110 4.159969
v 2.078236 0.497110 4.130995
v 1.795348 0.497110 4.045181
v 1.534638 0.497110 3.905829
v 1.416249 0.497110 3.808669
v 1.115292 -0.502891 4.175387
v 0.695982 -0.502891 4.519506
v 0.217595 -0.502891 4.775209
v -0.301486 -0.502891 4.932670
v -0.841312 -0.502891 4.985839
v -1.381136 -0.502891 4.932672
v -1.900217 -0.502891 4.775210
v -2.378603 -0.502891 4.519507
v -2.797914 -0.502891 4.175389
v -3.142031 -0.502891 3.756079
v -3.397736 -0.502891 3.277692
v -3.555196 -0.502891 2.758611
v -3.608364 -0.502891 2.218786
v -3.555196 -0.502891 1.678961
v -3.533644 -0.502891 1.607916
v 1.115292 0.497110 4.175387
v 0.695982 0.497110 4.519506
v 0.217595 0.497110 4.775209
v -0.301486 0.497110 4.932670
v -0.841312 0.497110 4.985839
v -1.381136 0.497110 4.932672
v -1.900217 0.497110 4.775210
v -2.378603 0.497110 4.519507
v -2.797914 0.497110 4.175389
v -3.142031 0.497110 3.756079
v -3.397736 0.497110 3.277692
v -3.555196 0.497110 2.758611
v -3.608364 0.497110 2.218786
v -3.555196 0.497110 1.678961
v -3.533644 0.497110 1.607916
v -3.699028 0.497110 1.557747
v -3.699028 -0.502891 1.557747
v -4.031556 -0.502891 1.380008
v -4.323017 -0.502891 1.140811
v -4.562215 -0.502891 0.849349
v -4.739954 -0.502891 0.516822
v -4.849406 -0.502891 0.156010
v -4.886362 -0.502891 -0.219223
v -4.849404 -0.502891 -0.594455
v -4.739953 -0.502891 -0.955268
v -4.562215 -0.502891 -1.287794
v -4.323017 -0.502891 -1.579257
v -4.031556 -0.502891 -1.818454
v -3.699028 -0.502891 -1.996192
v -3.699028 0.497110 -1.996192
v -4.031556 0.497110 -1.818454
v -4.323017 0.497110 -1.579257
v -4.562215 0.497110 -1.287794
v -4.739953 0.497110 -0.955268
v -4.849404 0.497110 -0.594455
v -4.886362 0.497110 -0.219223
v -4.849406 0.497110 0.156010
v -4.739954 0.497110 0.516822
v -4.562215 0.497110 0.849349
v -4.323017 0.497110 1.140811
v -4.031556 0.497110 1.380008
vt 0.849239 0.143844
vt 0.853065 0.145992
vt 0.857237 0.147352
vt 0.861593 0.147872
vt 0.865968 0.147532
vt 0.869680 0.146490
vt 0.847615 0.108514
vt 0.846559 0.109344
vt 0.843706 0.112678
vt 0.841558 0.116504
vt 0.840198 0.120676
vt 0.839678 0.125032
vt 0.840018 0.129407
vt 0.841205 0.133631
vt 0.843193 0.137542
vt 0.845906 0.140991
vt 0.147779 0.818856
vt 0.139926 0.793124
vt 0.137275 0.766364
vt 0.139926 0.739604
vt 0.147779 0.713873
vt 0.151684 0.706611
vt 0.370314 0.865427
vt 0.351940 0.880415
vt 0.328082 0.893091
vt 0.302194 0.900897
vt 0.275272 0.903532
vt 0.248350 0.900897
vt 0.222463 0.893091
vt 0.198605 0.880415
vt 0.177693 0.863357
vt 0.160532 0.842571
vt 0.861971 0.302181
vt 0.631653 0.138780
vt 0.643189 0.129369
vt 0.668594 0.115872
vt 0.696160 0.107560
vt 0.724828 0.104754
vt 0.753496 0.107560
vt 0.781062 0.115872
vt 0.806467 0.129370
vt 0.828735 0.147534
vt 0.847009 0.169668
vt 0.860589 0.194920
vt 0.868951 0.222321
vt 0.871774 0.250816
vt 0.868951 0.279311
vt 0.857784 0.663243
vt 0.871273 0.304986
vt 0.904614 0.322700
vt 0.933837 0.346539
vt 0.957820 0.375586
vt 0.975641 0.408726
vt 0.986615 0.444685
vt 0.990320 0.482081
vt 0.986614 0.519477
vt 0.975640 0.555436
vt 0.957819 0.588576
vt 0.933837 0.617623
vt 0.904613 0.641462
vt 0.871273 0.659175
vt 0.149309 0.351944
vt 0.133193 0.701035
vt 0.100789 0.683820
vt 0.072388 0.660651
vt 0.049079 0.632420
vt 0.031759 0.600212
vt 0.021094 0.565264
vt 0.017492 0.528919
vt 0.021094 0.492574
vt 0.031759 0.457626
vt 0.049079 0.425418
vt 0.072388 0.397187
vt 0.100789 0.374019
vt 0.133193 0.356803
vt 0.490094 0.962651
vt 0.443477 0.937883
vt 0.402618 0.904552
vt 0.147209 0.345062
vt 0.142027 0.292775
vt 0.147208 0.240488
vt 0.162552 0.190210
vt 0.187469 0.143874
vt 0.221002 0.103260
vt 0.261862 0.069929
vt 0.308479 0.045162
vt 0.359061 0.029910
vt 0.411664 0.024760
vt 0.464268 0.029910
vt 0.514850 0.045162
vt 0.561466 0.069929
vt 0.602326 0.103260
vt 0.862916 0.715037
vt 0.857735 0.767325
vt 0.842391 0.817602
vt 0.817474 0.863939
vt 0.783941 0.904553
vt 0.743081 0.937884
vt 0.696465 0.962651
vt 0.645883 0.977903
vt 0.593280 0.983052
vt 0.540676 0.977902
vt 0.956124 0.054931
vt 0.979624 0.094354
vt 0.982160 0.091391
vt 0.984447 0.087317
vt 0.985896 0.082875
vt 0.986449 0.078236
vt 0.986088 0.073578
vt 0.984824 0.069079
vt 0.982707 0.064914
vt 0.979818 0.061242
vt 0.976269 0.058204
vt 0.972194 0.055917
vt 0.967752 0.054469
vt 0.963113 0.053915
vt 0.958455 0.054277
vt 0.871913 0.154441
vt 0.875798 0.162083
vt 0.881099 0.168822
vt 0.887612 0.174396
vt 0.895088 0.178593
vt 0.903239 0.181250
vt 0.911751 0.182267
vt 0.920299 0.181603
vt 0.928553 0.179284
vt 0.936195 0.175400
vt 0.942933 0.170099
vt 0.948508 0.163585
vt 0.952705 0.156109
vt 0.955337 0.148035
vt 0.957607 0.148306
vt 0.963720 0.147831
vt 0.969624 0.146173
vt 0.975090 0.143395
vt 0.979909 0.139604
vt 0.983896 0.134945
vt 0.986897 0.129599
vt 0.988798 0.123769
vt 0.989525 0.117681
vt 0.989050 0.111567
vt 0.987392 0.105664
vt 0.984613 0.100198
vt 0.980822 0.095379
vt 0.954096 0.047713
vt 0.950212 0.040070
vt 0.944911 0.033332
vt 0.938398 0.027758
vt 0.930922 0.023561
vt 0.922771 0.020903
vt 0.914258 0.019887
vt 0.905711 0.020551
vt 0.897457 0.022870
vt 0.889815 0.026754
vt 0.883076 0.032055
vt 0.877502 0.038568
vt 0.873305 0.046044
vt 0.870648 0.054195
vt 0.870509 0.055360
vt 0.867796 0.055036
vt 0.861855 0.055498
vt 0.856118 0.057110
vt 0.850805 0.059810
vt 0.846122 0.063494
vt 0.842247 0.068022
vt 0.839330 0.073218
vt 0.837483 0.078884
vt 0.836776 0.084801
vt 0.837238 0.090743
vt 0.838849 0.096480
vt 0.841549 0.101792
vt 0.845234 0.106476
vt 0.072495 0.250829
vt 0.072495 0.253879
vt 0.022039 0.253879
vt 0.022039 0.250829
vt 0.072495 0.247780
vt 0.022039 0.247780
vt 0.072495 0.244731
vt 0.022038 0.244731
vt 0.072495 0.241681
vt 0.022038 0.241681
vt 0.072495 0.238632
vt 0.022038 0.238632
vt 0.072495 0.235953
vt 0.022038 0.235953
vt 0.022039 0.279207
vt 0.022039 0.278273
vt 0.072496 0.278273
vt 0.072496 0.279207
vt 0.072496 0.275224
vt 0.022039 0.275224
vt 0.072496 0.272174
vt 0.022039 0.272174
vt 0.072496 0.269125
vt 0.022039 0.269125
vt 0.072496 0.266076
vt 0.022039 0.266076
vt 0.072496 0.263027
vt 0.022039 0.263027
vt 0.072495 0.259977
vt 0.022039 0.259977
vt 0.072495 0.256928
vt 0.022039 0.256928
vt 0.022038 0.230213
vt 0.072495 0.230213
vt 0.072495 0.224255
vt 0.022038 0.224255
vt 0.072495 0.212339
vt 0.072495 0.218297
vt 0.022038 0.218297
vt 0.022038 0.212339
vt 0.072495 0.206381
vt 0.022038 0.206381
vt 0.072495 0.200423
vt 0.022038 0.200423
vt 0.072495 0.194464
vt 0.022038 0.194464
vt 0.072495 0.188506
vt 0.022038 0.188506
vt 0.072494 0.182548
vt 0.022038 0.182548
vt 0.072494 0.176590
vt 0.022038 0.176590
vt 0.072494 0.170632
vt 0.022037 0.170632
vt 0.072494 0.164674
vt 0.022037 0.164674
vt 0.072494 0.158716
vt 0.022037 0.158716
vt 0.072494 0.152814
vt 0.022037 0.152814
vt 0.022037 0.151225
vt 0.072494 0.151225
vt 0.072494 0.146964
vt 0.022037 0.146964
vt 0.072494 0.142702
vt 0.022037 0.142702
vt 0.072494 0.138441
vt 0.022037 0.138441
vt 0.072494 0.134180
vt 0.022037 0.134180
vt 0.072494 0.129919
vt 0.022037 0.129919
vt 0.072494 0.125657
vt 0.022037 0.125657
vt 0.072494 0.121396
vt 0.022037 0.121396
vt 0.072494 0.117135
vt 0.022037 0.117135
vt 0.072494 0.112873
vt 0.022037 0.112873
vt 0.072494 0.108612
vt 0.022037 0.108612
vt 0.072494 0.104351
vt 0.022037 0.104351
vt 0.072494 0.100090
vt 0.022037 0.100090
vt 0.072494 0.098994
vt 0.022037 0.098994
vt 0.022037 0.096284
vt 0.072494 0.096284
vt 0.072493 0.093037
vt 0.022037 0.093037
vt 0.072493 0.089790
vt 0.022037 0.089790
vt 0.072493 0.086543
vt 0.022037 0.086543
vt 0.072493 0.083296
vt 0.022037 0.083296
vt 0.072493 0.080049
vt 0.022037 0.080049
vt 0.072493 0.076801
vt 0.022037 0.076802
vt 0.072493 0.073555
vt 0.022037 0.073555
vt 0.072493 0.070307
vt 0.022037 0.070307
vt 0.072494 0.067060
vt 0.022037 0.067060
vt 0.072494 0.063813
vt 0.022037 0.063813
vt 0.072494 0.060566
vt 0.022037 0.060566
vt 0.072494 0.057319
vt 0.022037 0.057319
vt 0.072494 0.055637
vt 0.022037 0.055637
vt 0.022037 0.050426
vt 0.072494 0.050426
vt 0.072493 0.044468
vt 0.022037 0.044468
vt 0.072493 0.038510
vt 0.022037 0.038510
vt 0.072493 0.032552
vt 0.022037 0.032552
vt 0.072493 0.026594
vt 0.022037 0.026594
vt 0.072493 0.020636
vt 0.022037 0.020636
vt 0.072493 0.014678
vt 0.022037 0.014678
vt 0.072496 0.369545
vt 0.072496 0.375503
vt 0.022039 0.375503
vt 0.022039 0.369545
vt 0.072496 0.363587
vt 0.022039 0.363587
vt 0.072496 0.357629
vt 0.022039 0.357629
vt 0.072496 0.351671
vt 0.022039 0.351671
vt 0.072496 0.345713
vt 0.022039 0.345713
vt 0.072496 0.339755
vt 0.022039 0.339755
vt 0.072496 0.333796
vt 0.022039 0.333796
vt 0.072496 0.332981
vt 0.022039 0.332981
vt 0.022039 0.331083
vt 0.072496 0.331083
vt 0.072496 0.326941
vt 0.022039 0.326941
vt 0.072496 0.322800
vt 0.022039 0.322800
vt 0.072496 0.318658
vt 0.022039 0.318658
vt 0.072496 0.314517
vt 0.022039 0.314517
vt 0.072496 0.310375
vt 0.022039 0.310375
vt 0.072496 0.306234
vt 0.022039 0.306234
vt 0.072496 0.302092
vt 0.022039 0.302092
vt 0.072496 0.297951
vt 0.022039 0.297951
vt 0.072496 0.293809
vt 0.022039 0.293809
vt 0.072496 0.289668
vt 0.022039 0.289668
vt 0.072496 0.285526
vt 0.022039 0.285526
vt 0.072496 0.281385
vt 0.022039 0.281385
vn 0.0000 -1.0000 -0.0000
vn -0.0000 1.0000 -0.0000
vn -0.1420 -0.6857 -0.7139
vn -0.2785 -0.6857 -0.6725
vn -0.2785 0.6857 -0.6725
vn -0.1420 0.6857 -0.7139
vn 0.0000 -0.6857 -0.7279
vn 0.0000 0.6857 -0.7279
vn 0.1420 -0.6857 -0.7139
vn 0.1420 0.6857 -0.7139
vn 0.2785 -0.6857 -0.6725
vn 0.2785 0.6857 -0.6725
vn 0.4044 -0.6857 -0.6052
vn 0.4044 0.6857 -0.6052
vn -0.0457 -0.8843 -0.4646
vn -0.0457 0.8843 -0.4646
vn -0.3475 0.9265 -0.1440
vn -0.6725 0.6857 0.2785
vn -0.6725 -0.6857 0.2785
vn -0.3475 -0.9265 -0.1440
vn -0.7139 -0.6857 0.1420
vn -0.7139 0.6857 0.1420
vn -0.7279 -0.6857 0.0000
vn -0.7279 0.6857 0.0000
vn -0.7139 -0.6857 -0.1420
vn -0.7139 0.6857 -0.1420
vn -0.6725 -0.6857 -0.2785
vn -0.6725 0.6857 -0.2785
vn -0.6052 -0.6857 -0.4044
vn -0.6052 0.6857 -0.4044
vn -0.5147 -0.6857 -0.5147
vn -0.5147 0.6857 -0.5147
vn -0.4044 -0.6857 -0.6052
vn -0.4044 0.6857 -0.6052
vn 0.5147 -0.6857 -0.5147
vn 0.5147 0.6857 -0.5147
vn 0.6052 -0.6857 -0.4044
vn 0.6052 0.6857 -0.4044
vn 0.6725 -0.6857 -0.2785
vn 0.6725 0.6857 -0.2785
vn 0.7139 -0.6857 -0.1420
vn 0.7139 0.6857 -0.1420
vn 0.7279 -0.6857 0.0000
vn 0.7279 0.6857 0.0000
vn 0.6723 -0.5884 -0.4492
vn 0.4091 0.8705 -0.2734
vn 0.7139 -0.6857 0.1420
vn 0.7139 0.6857 0.1420
vn 0.6725 -0.6857 0.2785
vn 0.6725 0.6857 0.2785
vn 0.6052 -0.6857 0.4044
vn 0.6052 0.6857 0.4044
vn 0.5147 -0.6857 0.5147
vn 0.5147 0.6857 0.5147
vn 0.4044 -0.6857 0.6052
vn 0.4044 0.6857 0.6052
vn 0.2785 -0.6857 0.6725
vn 0.2785 0.6857 0.6725
vn 0.4232 -0.8773 0.2262
vn 0.3760 0.9045 0.2010
vn 0.1420 -0.6857 0.7139
vn 0.1420 0.6857 0.7139
vn 0.0000 -0.6857 0.7279
vn 0.0000 0.6857 0.7279
vn -0.1420 -0.6857 0.7139
vn -0.1420 0.6857 0.7139
vn -0.2785 -0.6857 0.6725
vn -0.2785 0.6857 0.6725
vn -0.4044 -0.6857 0.6052
vn -0.4044 0.6857 0.6052
vn 0.0459 -0.8833 0.4666
vn 0.0459 0.8833 0.4666
vn -0.5147 -0.6857 0.5147
vn -0.5147 0.6857 0.5147
vn -0.6052 -0.6857 0.4044
vn -0.6052 0.6857 0.4044
vn -0.4172 -0.8810 0.2230
vn -0.4172 0.8810 0.2230
usemtl face
s off
f 1/1/1 2/2/1 3/3/1 4/4/1 5/5/1 6/6/1 7/7/1 8/8/1 9/9/1 10/10/1 11/11/1 12/12/1 13/13/1 14/14/1 15/15/1 16/16/1
f 29/17/2 28/18/2 27/19/2 26/20/2 25/21/2 24/22/2 23/23/2 22/24/2 21/25/2 20/26/2 19/27/2 18/28/2 17/29/2 32/30/2 31/31/2 30/32/2
f 102/33/2 116/34/2 115/35/2 114/36/2 113/37/2 112/38/2 111/39/2 110/40/2 109/41/2 108/42/2 107/43/2 106/44/2 105/45/2 104/46/2 103/47/2
f 60/48/2 102/33/2 101/49/2 100/50/2 99/51/2 98/52/2 97/53/2 96/54/2 95/55/2 94/56/2 93/57/2 92/58/2 91/59/2 90/60/2 89/61/2
f 146/62/2 24/22/2 161/63/2 162/64/2 163/65/2 164/66/2 165/67/2 166/68/2 167/69/2 168/70/2 169/71/2 170/72/2 171/73/2 172/74/2 147/75/2
f 50/76/2 48/77/2 34/78/2 23/23/2 24/22/2 146/62/2 145/79/2 144/80/2 143/81/2 142/82/2 141/83/2 140/84/2 139/85/2 138/86/2 137/87/2 136/88/2 135/89/2 134/90/2 133/91/2 132/92/2 116/34/2 102/33/2 60/48/2 51/93/2 52/94/2 53/95/2 54/96/2 55/97/2 56/98/2 57/99/2 58/100/2 59/101/2 49/102/2
f 88/103/1 61/104/1 75/105/1 76/106/1 77/107/1 78/108/1 79/109/1 80/110/1 81/111/1 82/112/1 83/113/1 84/114/1 85/115/1 86/116/1 87/117/1
f 7/7/1 6/6/1 33/118/1 46/119/1 47/120/1 35/121/1 36/122/1 37/123/1 38/124/1 39/125/1 40/126/1 41/127/1 42/128/1 43/129/1 44/130/1 45/131/1 62/132/1 63/133/1 64/134/1 65/135/1 66/136/1 67/137/1 68/138/1 69/139/1 70/140/1 71/141/1 72/142/1 73/143/1 74/144/1 61/104/1 88/103/1 117/145/1 118/146/1 119/147/1 120/148/1 121/149/1 122/150/1 123/151/1 124/152/1 125/153/1 126/154/1 127/155/1 128/156/1 129/157/1 130/158/1 131/159/1
f 131/159/1 148/160/1 149/161/1 150/162/1 151/163/1 152/164/1 153/165/1 154/166/1 155/167/1 156/168/1 157/169/1 158/170/1 159/171/1 160/172/1 7/7/1
s 1
f 1/173/3 16/174/4 17/175/5 18/176/6
f 2/177/7 1/173/3 18/176/6 19/178/8
f 3/179/9 2/177/7 19/178/8 20/180/10
f 4/181/11 3/179/9 20/180/10 21/182/12
f 5/183/13 4/181/11 21/182/12 22/184/14
f 6/185/15 5/183/13 22/184/14 23/186/16
f 24/187/17 25/188/18 8/189/19 7/190/20
f 9/191/21 8/189/19 25/188/18 26/192/22
f 10/193/23 9/191/21 26/192/22 27/194/24
f 11/195/25 10/193/23 27/194/24 28/196/26
f 12/197/27 11/195/25 28/196/26 29/198/28
f 13/199/29 12/197/27 29/198/28 30/200/30
f 14/201/31 13/199/29 30/200/30 31/202/32
f 15/203/33 14/201/31 31/202/32 32/204/34
f 16/174/4 15/203/33 32/204/34 17/175/5
f 6/185/15 23/186/16 34/205/32 33/206/31
f 46/207/33 33/206/31 34/205/32 48/208/34
f 35/209/3 47/210/4 50/211/5 49/212/6
f 36/213/7 35/209/3 49/212/6 59/214/8
f 37/215/9 36/213/7 59/214/8 58/216/10
f 38/217/11 37/215/9 58/216/10 57/218/12
f 39/219/13 38/217/11 57/218/12 56/220/14
f 40/221/35 39/219/13 56/220/14 55/222/36
f 41/223/37 40/221/35 55/222/36 54/224/38
f 42/225/39 41/223/37 54/224/38 53/226/40
f 43/227/41 42/225/39 53/226/40 52/228/42
f 44/229/43 43/227/41 52/228/42 51/230/44
f 45/231/45 44/229/43 51/230/44 60/232/46
f 47/210/4 46/207/33 48/208/34 50/211/5
f 60/232/46 89/233/12 62/234/11 45/231/45
f 63/235/13 62/234/11 89/233/12 90/236/14
f 64/237/35 63/235/13 90/236/14 91/238/36
f 65/239/37 64/237/35 91/238/36 92/240/38
f 66/241/39 65/239/37 92/240/38 93/242/40
f 67/243/41 66/241/39 93/242/40 94/244/42
f 68/245/43 67/243/41 94/244/42 95/246/44
f 69/247/47 68/245/43 95/246/44 96/248/48
f 70/249/49 69/247/47 96/248/48 97/250/50
f 71/251/51 70/249/49 97/250/50 98/252/52
f 72/253/53 71/251/51 98/252/52 99/254/54
f 73/255/55 72/253/53 99/254/54 100/256/56
f 74/257/57 73/255/55 100/256/56 101/258/58
f 61/259/59 74/257/57 101/258/58 102/260/60
f 102/260/60 103/261/42 75/262/41 61/259/59
f 76/263/43 75/262/41 103/261/42 104/264/44
f 77/265/47 76/263/43 104/264/44 105/266/48
f 78/267/49 77/265/47 105/266/48 106/268/50
f 79/269/51 78/267/49 106/268/50 107/270/52
f 80/271/53 79/269/51 107/270/52 108/272/54
f 81/273/55 80/271/53 108/272/54 109/274/56
f 82/275/57 81/273/55 109/274/56 110/276/58
f 83/277/61 82/275/57 110/276/58 111/278/62
f 84/279/63 83/277/61 111/278/62 112/280/64
f 85/281/65 84/279/63 112/280/64 113/282/66
f 86/283/67 85/281/65 113/282/66 114/284/68
f 87/285/69 86/283/67 114/284/68 115/286/70
f 88/287/71 87/285/69 115/286/70 116/288/72
f 116/288/72 132/289/54 117/290/53 88/287/71
f 118/291/55 117/290/53 132/289/54 133/292/56
f 119/293/57 118/291/55 133/292/56 134/294/58
f 120/295/61 119/293/57 134/294/58 135/296/62
f 121/297/63 120/295/61 135/296/62 136/298/64
f 122/299/65 121/297/63 136/298/64 137/300/66
f 123/301/67 122/299/65 137/300/66 138/302/68
f 124/303/69 123/304/67 138/305/68 139/306/70
f 125/307/73 124/303/69 139/306/70 140/308/74
f 126/309/75 125/307/73 140/308/74 141/310/76
f 127/311/19 126/309/75 141/310/76 142/312/18
f 128/313/21 127/311/19 142/312/18 143/314/22
f 129/315/23 128/313/21 143/314/22 144/316/24
f 130/317/25 129/315/23 144/316/24 145/318/26
f 131/319/77 130/317/25 145/318/26 146/320/78
f 146/320/78 147/321/68 148/322/67 131/319/77
f 149/323/69 148/322/67 147/321/68 172/324/70
f 150/325/73 149/323/69 172/324/70 171/326/74
f 151/327/75 150/325/73 171/326/74 170/328/76
f 152/329/19 151/327/75 170/328/76 169/330/18
f 153/331/21 152/329/19 169/330/18 168/332/22
f 154/333/23 153/331/21 168/332/22 167/334/24
f 155/335/25 154/333/23 167/334/24 166/336/26
f 156/337/27 155/335/25 166/336/26 165/338/28
f 157/339/29 156/337/27 165/338/28 164/340/30
f 158/341/31 157/339/29 164/340/30 163/342/32
f 159/343/33 158/341/31 163/342/32 162/344/34
f 160/345/4 159/343/33 162/344/34 161/346/5
f 7/190/20 160/345/4 161/346/5 24/187/17
