{
    "accessors" : [
        {
            "bufferView" : 0,
            "componentType" : 5125,
            "count" : 26112,
            "max" : [
                5589
            ],
            "min" : [
                0
            ],
            "type" : "SCALAR"
        },
        {
            "bufferView" : 1,
            "componentType" : 5126,
            "count" : 5590,
            "max" : [
                1.0169544219970703,
                2.1993706226348877,
                1.0169540643692017
            ],
            "min" : [
                -1.0169545412063599,
                0.0008688103407621384,
                -1.0169543027877808
            ],
            "type" : "VEC3"
        },
        {
            "bufferView" : 2,
            "componentType" : 5126,
            "count" : 5590,
            "max" : [
                0.999603271484375,
                0.9969786405563354,
                0.999603271484375
            ],
            "min" : [
                -0.999847412109375,
                -0.964934229850769,
                -0.99981689453125
            ],
            "type" : "VEC3"
        },
        {
            "bufferView" : 3,
            "componentType" : 5126,
            "count" : 5590,
            "max" : [
                0.999942421913147,
                0.9398237466812134,
                0.987835705280304,
                1.0
            ],
            "min" : [
                -0.8479377031326294,
                -0.7674176692962646,
                -0.9999046325683594,
                1.0
            ],
            "type" : "VEC4"
        },
        {
            "bufferView" : 4,
            "componentType" : 5126,
            "count" : 5590,
            "max" : [
                0.983159065246582,
                0.9825790412724018
            ],
            "min" : [
                0.00047255726531147957,
                0.05936330556869507
            ],
            "type" : "VEC2"
        },
        {
            "bufferView" : 5,
            "componentType" : 5125,
            "count" : 9216,
            "max" : [
                2339
            ],
            "min" : [
                0
            ],
            "type" : "SCALAR"
        },
        {
            "bufferView" : 6,
            "componentType" : 5126,
            "count" : 2340,
            "max" : [
                1.101669192314148,
                2.340506076812744,
                1.086540699005127
            ],
            "min" : [
                -1.0824871063232422,
                0.3069186806678772,
                -1.097615361213684
            ],
            "type" : "VEC3"
        },
        {
            "bufferView" : 7,
            "componentType" : 5126,
            "count" : 2340,
            "max" : [
                0.9969481229782104,
                0.9854426980018616,
                0.9969481229782104
            ],
            "min" : [
                -0.9970091581344604,
                0.05224768817424774,
                -0.9969481229782104
            ],
            "type" : "VEC3"
        },
        {
            "bufferView" : 8,
            "componentType" : 5126,
            "count" : 2340,
            "max" : [
                0.999844491481781,
                0.3103182911872864,
                0.9113882780075073,
                1.0
            ],
            "min" : [
                -0.7316992878913879,
                -0.3947494924068451,
                -0.9998437166213989,
                1.0
            ],
            "type" : "VEC4"
        },
        {
            "bufferView" : 9,
            "componentType" : 5126,
            "count" : 2340,
            "max" : [
                0.9624088406562805,
                0.40603864192962646
            ],
            "min" : [
                0.007783796638250351,
                0.009291231632232666
            ],
            "type" : "VEC2"
        },
        {
            "bufferView" : 10,
            "componentType" : 5125,
            "count" : 86016,
            "max" : [
                16331
            ],
            "min" : [
                0
            ],
            "type" : "SCALAR"
        },
        {
            "bufferView" : 11,
            "componentType" : 5126,
            "count" : 16332,
            "max" : [
                1.1543145179748535,
                2.341370105743408,
                1.1543141603469849
            ],
            "min" : [
                -1.1543145179748535,
                -0.0957789495587349,
                -1.1543142795562744
            ],
            "type" : "VEC3"
        },
        {
            "bufferView" : 12,
            "componentType" : 5126,
            "count" : 16332,
            "max" : [
                0.999847412109375,
                1.0,
                0.999847412109375
            ],
            "min" : [
                -0.999847412109375,
                -1.0,
                -0.999847412109375
            ],
            "type" : "VEC3"
        },
        {
            "bufferView" : 13,
            "componentType" : 5126,
            "count" : 16332,
            "max" : [
                0.9999996423721313,
                0.9879645109176636,
                0.9998664855957031,
                1.0
            ],
            "min" : [
                -0.9998664855957031,
                -0.9879659414291382,
                -0.9999992847442627,
                1.0
            ],
            "type" : "VEC4"
        },
        {
            "bufferView" : 14,
            "componentType" : 5126,
            "count" : 16332,
            "max" : [
                0.9995275139808655,
                0.4311816692352295
            ],
            "min" : [
                0.00047255720710381866,
                0.010412096977233887
            ],
            "type" : "VEC2"
        }
    ],
    "asset" : {
        "generator" : "Khronos Blender glTF 2.0 exporter",
        "version" : "2.0"
    },
    "bufferViews" : [
        {
            "buffer" : 0,
            "byteLength" : 104448,
            "byteOffset" : 0,
            "target" : 34963
        },
        {
            "buffer" : 0,
            "byteLength" : 67080,
            "byteOffset" : 104448,
            "target" : 34962
        },
        {
            "buffer" : 0,
            "byteLength" : 67080,
            "byteOffset" : 171528,
            "target" : 34962
        },
        {
            "buffer" : 0,
            "byteLength" : 89440,
            "byteOffset" : 238608,
            "target" : 34962
        },
        {
            "buffer" : 0,
            "byteLength" : 44720,
            "byteOffset" : 328048,
            "target" : 34962
        },
        {
            "buffer" : 0,
            "byteLength" : 36864,
            "byteOffset" : 372768,
            "target" : 34963
        },
        {
            "buffer" : 0,
            "byteLength" : 28080,
            "byteOffset" : 409632,
            "target" : 34962
        },
        {
            "buffer" : 0,
            "byteLength" : 28080,
            "byteOffset" : 437712,
            "target" : 34962
        },
        {
            "buffer" : 0,
            "byteLength" : 37440,
            "byteOffset" : 465792,
            "target" : 34962
        },
        {
            "buffer" : 0,
            "byteLength" : 18720,
            "byteOffset" : 503232,
            "target" : 34962
        },
        {
            "buffer" : 0,
            "byteLength" : 344064,
            "byteOffset" : 521952,
            "target" : 34963
        },
        {
            "buffer" : 0,
            "byteLength" : 195984,
            "byteOffset" : 866016,
            "target" : 34962
        },
        {
            "buffer" : 0,
            "byteLength" : 195984,
            "byteOffset" : 1062000,
            "target" : 34962
        },
        {
            "buffer" : 0,
            "byteLength" : 261312,
            "byteOffset" : 1257984,
            "target" : 34962
        },
        {
            "buffer" : 0,
            "byteLength" : 130656,
            "byteOffset" : 1519296,
            "target" : 34962
        }
    ],
    "buffers" : [
        {
            "byteLength" : 1649952,
            "uri" : "Silos_a.bin"
        }
    ],
    "images" : [
        {
            "name" : "SilosA",
            "uri" : "SilosA.jpg"
        }
    ],
    "materials" : [
        {
            "alphaMode" : "BLEND",
            "emissiveFactor" : [
                1.0,
                1.0,
                1.0
            ],
            "emissiveTexture" : {
                "index" : 0
            },
            "name" : "led.002",
            "pbrMetallicRoughness" : {
                "baseColorTexture" : {
                    "index" : 0
                }
            }
        },
        {
            "alphaMode" : "BLEND",
            "extras" : {
                "v3d" : {}
            },
            "name" : "roof.001",
            "pbrMetallicRoughness" : {
                "baseColorTexture" : {
                    "index" : 0
                },
                "roughnessFactor" : 0.0
            }
        },
        {
            "alphaMode" : "BLEND",
            "emissiveFactor" : [
                1.0,
                1.0,
                1.0
            ],
            "emissiveTexture" : {
                "index" : 0
            },
            "extras" : {
                "v3d" : {}
            },
            "name" : "wallstran",
            "pbrMetallicRoughness" : {
                "baseColorTexture" : {
                    "index" : 0
                },
                "metallicFactor" : 0.0
            }
        }
    ],
    "meshes" : [
        {
            "name" : "Sphere",
            "primitives" : [
                {
                    "attributes" : {
                        "NORMAL" : 2,
                        "POSITION" : 1,
                        "TANGENT" : 3,
                        "TEXCOORD_0" : 4
                    },
                    "indices" : 0,
                    "material" : 2
                },
                {
                    "attributes" : {
                        "NORMAL" : 7,
                        "POSITION" : 6,
                        "TANGENT" : 8,
                        "TEXCOORD_0" : 9
                    },
                    "indices" : 5,
                    "material" : 0
                },
                {
                    "attributes" : {
                        "NORMAL" : 12,
                        "POSITION" : 11,
                        "TANGENT" : 13,
                        "TEXCOORD_0" : 14
                    },
                    "indices" : 10,
                    "material" : 1
                }
            ]
        }
    ],
    "nodes" : [
        {
            "extras" : {
                "s_curve" : {},
                "v3d" : {}
            },
            "mesh" : 0,
            "name" : "Sphere",
            "rotation" : [
                0.0,
                -0.866025447845459,
                -0.0,
                0.4999999701976776
            ],
            "scale" : [
                30.000001907348633,
                30.0,
                30.000001907348633
            ]
        }
    ],
    "samplers" : [
        {}
    ],
    "scene" : 0,
    "scenes" : [
        {
            "name" : "Scene",
            "nodes" : [
                0
            ]
        }
    ],
    "textures" : [
        {
            "sampler" : 0,
            "source" : 0
        },
        {
            "sampler" : 0,
            "source" : 0
        },
        {
            "sampler" : 0,
            "source" : 0
        }
    ]
}
